<svg width="30" height="30" viewBox="0 0 30 30" fill="none" xmlns="http://www.w3.org/2000/svg">
<rect x="6.5" y="9.5" width="14" height="14" stroke="#332922"/>
<mask id="path-2-inside-1_5_19" fill="white">
<path d="M9 6H10V9H9V6Z"/>
<path d="M24 20V21H21V20H24Z"/>
<path d="M24 21H23L23 6L24 6L24 21Z"/>
<path d="M9 7V6H24L24 7L9 7Z"/>
</mask>
<path d="M9 6H10V9H9V6Z" fill="#332922"/>
<path d="M24 20V21H21V20H24Z" fill="#332922"/>
<path d="M24 21H23L23 6L24 6L24 21Z" fill="#332922"/>
<path d="M9 7V6H24L24 7L9 7Z" fill="#332922"/>
<path d="M9 6V5H8V6H9ZM10 6H11V5H10V6ZM10 9V10H11V9H10ZM9 9H8V10H9V9ZM24 20H25V19H24V20ZM24 21V22H25V21H24ZM21 21H20V22H21V21ZM21 20V19H20V20H21ZM23 21L22 21L22 22H23V21ZM23 6L23 5L22 5L22 6L23 6ZM24 6L25 6L25 5H24V6ZM9 7H8V8L9 8L9 7ZM24 7L24 8L25 8L25 7L24 7ZM9 7H10V5H9V7ZM9 6V9H11V6H9ZM10 8H9V10H10V8ZM10 9V6H8V9H10ZM23 20V21H25V20H23ZM24 20H21V22H24V20ZM22 21V20H20V21H22ZM21 21H24V19H21V21ZM24 20H23V22H24V20ZM24 21L24 6L22 6L22 21L24 21ZM23 7L24 7L24 5L23 5L23 7ZM23 6L23 21L25 21L25 6L23 6ZM10 7V6H8V7H10ZM9 7H24V5H9V7ZM23 6L23 7L25 7L25 6L23 6ZM24 6L9 6L9 8L24 8L24 6Z" fill="#332922" mask="url(#path-2-inside-1_5_19)"/>
</svg>
