<svg width="435" height="198" viewBox="0 0 435 198" fill="none" xmlns="http://www.w3.org/2000/svg">
<mask id="path-1-outside-1_13_177" maskUnits="userSpaceOnUse" x="123.797" y="92.1074" width="288" height="70" fill="black">
<rect fill="white" x="123.797" y="92.1074" width="288" height="70"/>
<path d="M150.699 160.27C146.174 160.27 142.024 159.342 138.248 157.486C134.472 155.631 131.445 152.815 129.166 149.039C126.92 145.263 125.797 140.51 125.797 134.781C125.797 129.052 126.92 124.316 129.166 120.572C131.445 116.796 134.472 113.98 138.248 112.125C142.024 110.27 146.174 109.342 150.699 109.342C155.257 109.342 159.407 110.27 163.15 112.125C166.926 113.98 169.938 116.796 172.184 120.572C174.462 124.316 175.602 129.052 175.602 134.781C175.602 140.51 174.462 145.263 172.184 149.039C169.938 152.815 166.926 155.631 163.15 157.486C159.407 159.342 155.257 160.27 150.699 160.27ZM153.824 158.121C154.801 158.121 155.81 157.991 156.852 157.73C159.716 156.982 161.995 155.305 163.688 152.701C165.413 150.097 166.275 146.581 166.275 142.154C166.275 138.932 165.738 135.237 164.664 131.07C163.427 126.546 161.913 122.851 160.123 119.986C158.333 117.089 156.363 114.957 154.215 113.59C152.066 112.19 149.869 111.49 147.623 111.49C146.614 111.49 145.589 111.62 144.547 111.881C141.682 112.63 139.387 114.306 137.662 116.91C135.969 119.514 135.123 123.03 135.123 127.457C135.123 130.68 135.66 134.374 136.734 138.541C137.971 143.066 139.485 146.777 141.275 149.674C143.066 152.538 145.035 154.671 147.184 156.07C149.365 157.438 151.578 158.121 153.824 158.121Z"/>
<path d="M231.266 159H212.76V157.828C213.443 157.828 214.143 157.649 214.859 157.291C215.576 156.9 216.178 156.331 216.666 155.582C217.154 154.801 217.398 153.808 217.398 152.604V129.605C217.398 126.513 217.268 123.714 217.008 121.207C216.747 118.701 216.129 116.715 215.152 115.25C214.208 113.785 212.63 113.053 210.416 113.053C208.04 113.053 205.924 113.997 204.068 115.885C202.245 117.74 200.374 120.507 198.453 124.186L192.936 134.684V152.604C192.936 153.808 193.18 154.801 193.668 155.582C194.156 156.331 194.758 156.9 195.475 157.291C196.191 157.649 196.891 157.828 197.574 157.828V159H179.068V157.828C179.785 157.828 180.484 157.649 181.168 157.291C181.884 156.9 182.486 156.331 182.975 155.582C183.463 154.801 183.707 153.808 183.707 152.604L183.854 117.301C183.854 116.096 183.609 115.12 183.121 114.371C182.633 113.59 182.031 113.02 181.314 112.662C180.631 112.304 179.931 112.125 179.215 112.125V110.953H183.854C185.676 110.953 187.337 110.807 188.834 110.514C190.331 110.188 191.373 109.749 191.959 109.195H193.082L192.936 131.021L196.549 124.186C198.079 121.223 199.658 118.619 201.285 116.373C202.913 114.127 204.752 112.369 206.803 111.1C208.886 109.83 211.376 109.195 214.273 109.195C217.464 109.195 219.954 109.977 221.744 111.539C223.535 113.069 224.788 115.429 225.504 118.619C226.253 121.777 226.627 125.797 226.627 130.68V152.604C226.627 153.808 226.871 154.801 227.359 155.582C227.848 156.331 228.45 156.9 229.166 157.291C229.882 157.649 230.582 157.828 231.266 157.828V159Z"/>
<path d="M251.48 159C241.161 159 236.002 154.003 236.002 144.01V110.953H228.971V109.244C230.794 109.244 232.698 108.495 234.684 106.998C236.702 105.468 238.508 103.564 240.104 101.285C241.699 98.974 242.838 96.5814 243.521 94.1074H245.23V109.244H264.322V110.953H245.23V146.158C245.23 149.674 245.735 152.408 246.744 154.361C247.753 156.314 249.169 157.291 250.992 157.291C254.215 157.291 255.826 154.443 255.826 148.746C255.826 145.556 254.752 141.389 252.604 136.246L249.186 128.238H251.188C252.783 132.112 254.492 135.855 256.314 139.469C258.137 143.049 259.96 146.028 261.783 148.404C263.639 150.748 265.331 151.92 266.861 151.92V153.678C265.657 154.036 264.306 154.638 262.809 155.484C261.311 156.331 259.635 157.128 257.779 157.877C255.924 158.626 253.824 159 251.48 159Z"/>
<path d="M284.537 160.221C279.817 160.221 276.497 158.479 274.576 154.996C272.688 151.48 271.744 146.061 271.744 138.736L271.646 117.35C271.646 116.145 271.402 115.169 270.914 114.42C270.426 113.639 269.824 113.069 269.107 112.711C268.391 112.32 267.691 112.125 267.008 112.125V110.953H271.646C273.469 110.953 275.13 110.807 276.627 110.514C278.124 110.188 279.166 109.765 279.752 109.244H280.875L280.973 138.736C280.973 142.285 281.135 145.377 281.461 148.014C281.819 150.65 282.519 152.701 283.561 154.166C284.602 155.631 286.214 156.363 288.395 156.363C290.771 156.363 292.659 155.436 294.059 153.58C295.458 151.725 297.053 148.925 298.844 145.182L304.117 134.732L304.02 117.35C304.02 116.145 303.775 115.169 303.287 114.42C302.831 113.639 302.245 113.069 301.529 112.711C300.813 112.32 300.113 112.125 299.43 112.125V110.953H304.02C305.842 110.953 307.503 110.807 309 110.514C310.53 110.188 311.572 109.765 312.125 109.244H313.297L313.395 152.652C313.395 153.857 313.639 154.85 314.127 155.631C314.615 156.412 315.217 156.982 315.934 157.34C316.65 157.698 317.35 157.877 318.033 157.877V159.049H311.637C308.772 159.049 306.803 158.023 305.729 155.973C304.654 153.889 304.117 150.585 304.117 146.061V138.541L300.797 145.182C299.332 148.209 297.9 150.846 296.5 153.092C295.1 155.338 293.489 157.096 291.666 158.365C289.843 159.602 287.467 160.221 284.537 160.221Z"/>
<path d="M340.006 159.049H321.5V157.877C322.216 157.877 322.916 157.698 323.6 157.34C324.316 156.949 324.918 156.38 325.406 155.631C325.895 154.85 326.139 153.857 326.139 152.652V117.398C326.139 116.194 325.895 115.217 325.406 114.469C324.918 113.688 324.316 113.118 323.6 112.76C322.916 112.402 322.216 112.223 321.5 112.223V111.051H326.139C327.962 111.051 329.622 110.904 331.119 110.611C332.617 110.286 333.658 109.846 334.244 109.293H335.367V127.701L338.15 119.84C339.257 116.52 340.934 113.932 343.18 112.076C345.426 110.188 348.128 109.244 351.285 109.244C353.499 109.244 356.396 109.749 359.977 110.758C360.79 110.986 361.425 111.148 361.881 111.246V112.369C360.058 112.369 358.121 115.169 356.07 120.768C354.475 125.097 352.962 130.338 351.529 136.49H349.82L352.018 125.992C352.18 125.048 352.262 124.186 352.262 123.404C352.262 119.726 350.569 117.805 347.184 117.643C344.938 117.643 342.903 118.57 341.08 120.426C339.257 122.249 337.825 124.771 336.783 127.994L335.367 132.291V152.652C335.367 153.857 335.611 154.85 336.1 155.631C336.588 156.38 337.19 156.949 337.906 157.34C338.622 157.698 339.322 157.877 340.006 157.877V159.049Z"/>
<path d="M378.58 160.221C375.781 160.221 373.095 159.814 370.523 159C367.984 158.219 365.901 156.917 364.273 155.094C362.646 153.238 361.832 150.748 361.832 147.623C361.832 144.856 362.548 142.594 363.98 140.836C365.445 139.046 367.366 137.516 369.742 136.246C372.118 134.944 374.755 133.691 377.652 132.486L382.096 130.533C379.166 126.627 376.236 123.144 373.307 120.084C370.377 116.992 368.082 115.169 366.422 114.615V112.857L366.666 112.809C374.739 110.465 381.152 109.293 385.904 109.293C392.154 109.293 396.842 110.969 399.967 114.322C403.124 117.675 404.703 122.835 404.703 129.801V149.381C404.703 151.985 405.208 154.068 406.217 155.631C407.258 157.161 408.3 157.926 409.342 157.926V159.049H404.703C399.267 159.049 396.24 155.842 395.621 149.43C394.775 151.48 393.57 153.32 392.008 154.947C390.478 156.542 388.59 157.828 386.344 158.805C384.098 159.749 381.51 160.221 378.58 160.221ZM384.049 129.654L395.279 124.674C394.986 119.921 394.189 116.471 392.887 114.322C391.617 112.141 389.729 111.051 387.223 111.051C385.432 111.051 383.902 111.751 382.633 113.15C381.363 114.55 380.729 116.78 380.729 119.84C380.729 123.062 381.51 125.829 383.072 128.141L384.049 129.654ZM381.949 157.389C384.781 157.389 387.206 156.624 389.225 155.094C391.243 153.564 392.773 151.611 393.814 149.234C394.889 146.858 395.426 144.4 395.426 141.861C395.426 132.617 395.41 127.506 395.377 126.529L385.074 131.119L388.59 136.539H386.393C385.416 135.042 384.342 133.512 383.17 131.949L380.777 133.072C378.824 133.886 377.164 134.798 375.797 135.807C374.43 136.783 373.372 138.053 372.623 139.615C371.907 141.145 371.549 143.229 371.549 145.865C371.549 148.372 372.021 150.488 372.965 152.213C373.909 153.906 375.162 155.191 376.725 156.07C378.32 156.949 380.061 157.389 381.949 157.389Z"/>
</mask>
<path d="M150.699 160.27C146.174 160.27 142.024 159.342 138.248 157.486C134.472 155.631 131.445 152.815 129.166 149.039C126.92 145.263 125.797 140.51 125.797 134.781C125.797 129.052 126.92 124.316 129.166 120.572C131.445 116.796 134.472 113.98 138.248 112.125C142.024 110.27 146.174 109.342 150.699 109.342C155.257 109.342 159.407 110.27 163.15 112.125C166.926 113.98 169.938 116.796 172.184 120.572C174.462 124.316 175.602 129.052 175.602 134.781C175.602 140.51 174.462 145.263 172.184 149.039C169.938 152.815 166.926 155.631 163.15 157.486C159.407 159.342 155.257 160.27 150.699 160.27ZM153.824 158.121C154.801 158.121 155.81 157.991 156.852 157.73C159.716 156.982 161.995 155.305 163.688 152.701C165.413 150.097 166.275 146.581 166.275 142.154C166.275 138.932 165.738 135.237 164.664 131.07C163.427 126.546 161.913 122.851 160.123 119.986C158.333 117.089 156.363 114.957 154.215 113.59C152.066 112.19 149.869 111.49 147.623 111.49C146.614 111.49 145.589 111.62 144.547 111.881C141.682 112.63 139.387 114.306 137.662 116.91C135.969 119.514 135.123 123.03 135.123 127.457C135.123 130.68 135.66 134.374 136.734 138.541C137.971 143.066 139.485 146.777 141.275 149.674C143.066 152.538 145.035 154.671 147.184 156.07C149.365 157.438 151.578 158.121 153.824 158.121Z" fill="#E0CB96"/>
<path d="M231.266 159H212.76V157.828C213.443 157.828 214.143 157.649 214.859 157.291C215.576 156.9 216.178 156.331 216.666 155.582C217.154 154.801 217.398 153.808 217.398 152.604V129.605C217.398 126.513 217.268 123.714 217.008 121.207C216.747 118.701 216.129 116.715 215.152 115.25C214.208 113.785 212.63 113.053 210.416 113.053C208.04 113.053 205.924 113.997 204.068 115.885C202.245 117.74 200.374 120.507 198.453 124.186L192.936 134.684V152.604C192.936 153.808 193.18 154.801 193.668 155.582C194.156 156.331 194.758 156.9 195.475 157.291C196.191 157.649 196.891 157.828 197.574 157.828V159H179.068V157.828C179.785 157.828 180.484 157.649 181.168 157.291C181.884 156.9 182.486 156.331 182.975 155.582C183.463 154.801 183.707 153.808 183.707 152.604L183.854 117.301C183.854 116.096 183.609 115.12 183.121 114.371C182.633 113.59 182.031 113.02 181.314 112.662C180.631 112.304 179.931 112.125 179.215 112.125V110.953H183.854C185.676 110.953 187.337 110.807 188.834 110.514C190.331 110.188 191.373 109.749 191.959 109.195H193.082L192.936 131.021L196.549 124.186C198.079 121.223 199.658 118.619 201.285 116.373C202.913 114.127 204.752 112.369 206.803 111.1C208.886 109.83 211.376 109.195 214.273 109.195C217.464 109.195 219.954 109.977 221.744 111.539C223.535 113.069 224.788 115.429 225.504 118.619C226.253 121.777 226.627 125.797 226.627 130.68V152.604C226.627 153.808 226.871 154.801 227.359 155.582C227.848 156.331 228.45 156.9 229.166 157.291C229.882 157.649 230.582 157.828 231.266 157.828V159Z" fill="#E0CB96"/>
<path d="M251.48 159C241.161 159 236.002 154.003 236.002 144.01V110.953H228.971V109.244C230.794 109.244 232.698 108.495 234.684 106.998C236.702 105.468 238.508 103.564 240.104 101.285C241.699 98.974 242.838 96.5814 243.521 94.1074H245.23V109.244H264.322V110.953H245.23V146.158C245.23 149.674 245.735 152.408 246.744 154.361C247.753 156.314 249.169 157.291 250.992 157.291C254.215 157.291 255.826 154.443 255.826 148.746C255.826 145.556 254.752 141.389 252.604 136.246L249.186 128.238H251.188C252.783 132.112 254.492 135.855 256.314 139.469C258.137 143.049 259.96 146.028 261.783 148.404C263.639 150.748 265.331 151.92 266.861 151.92V153.678C265.657 154.036 264.306 154.638 262.809 155.484C261.311 156.331 259.635 157.128 257.779 157.877C255.924 158.626 253.824 159 251.48 159Z" fill="#E0CB96"/>
<path d="M284.537 160.221C279.817 160.221 276.497 158.479 274.576 154.996C272.688 151.48 271.744 146.061 271.744 138.736L271.646 117.35C271.646 116.145 271.402 115.169 270.914 114.42C270.426 113.639 269.824 113.069 269.107 112.711C268.391 112.32 267.691 112.125 267.008 112.125V110.953H271.646C273.469 110.953 275.13 110.807 276.627 110.514C278.124 110.188 279.166 109.765 279.752 109.244H280.875L280.973 138.736C280.973 142.285 281.135 145.377 281.461 148.014C281.819 150.65 282.519 152.701 283.561 154.166C284.602 155.631 286.214 156.363 288.395 156.363C290.771 156.363 292.659 155.436 294.059 153.58C295.458 151.725 297.053 148.925 298.844 145.182L304.117 134.732L304.02 117.35C304.02 116.145 303.775 115.169 303.287 114.42C302.831 113.639 302.245 113.069 301.529 112.711C300.813 112.32 300.113 112.125 299.43 112.125V110.953H304.02C305.842 110.953 307.503 110.807 309 110.514C310.53 110.188 311.572 109.765 312.125 109.244H313.297L313.395 152.652C313.395 153.857 313.639 154.85 314.127 155.631C314.615 156.412 315.217 156.982 315.934 157.34C316.65 157.698 317.35 157.877 318.033 157.877V159.049H311.637C308.772 159.049 306.803 158.023 305.729 155.973C304.654 153.889 304.117 150.585 304.117 146.061V138.541L300.797 145.182C299.332 148.209 297.9 150.846 296.5 153.092C295.1 155.338 293.489 157.096 291.666 158.365C289.843 159.602 287.467 160.221 284.537 160.221Z" fill="#E0CB96"/>
<path d="M340.006 159.049H321.5V157.877C322.216 157.877 322.916 157.698 323.6 157.34C324.316 156.949 324.918 156.38 325.406 155.631C325.895 154.85 326.139 153.857 326.139 152.652V117.398C326.139 116.194 325.895 115.217 325.406 114.469C324.918 113.688 324.316 113.118 323.6 112.76C322.916 112.402 322.216 112.223 321.5 112.223V111.051H326.139C327.962 111.051 329.622 110.904 331.119 110.611C332.617 110.286 333.658 109.846 334.244 109.293H335.367V127.701L338.15 119.84C339.257 116.52 340.934 113.932 343.18 112.076C345.426 110.188 348.128 109.244 351.285 109.244C353.499 109.244 356.396 109.749 359.977 110.758C360.79 110.986 361.425 111.148 361.881 111.246V112.369C360.058 112.369 358.121 115.169 356.07 120.768C354.475 125.097 352.962 130.338 351.529 136.49H349.82L352.018 125.992C352.18 125.048 352.262 124.186 352.262 123.404C352.262 119.726 350.569 117.805 347.184 117.643C344.938 117.643 342.903 118.57 341.08 120.426C339.257 122.249 337.825 124.771 336.783 127.994L335.367 132.291V152.652C335.367 153.857 335.611 154.85 336.1 155.631C336.588 156.38 337.19 156.949 337.906 157.34C338.622 157.698 339.322 157.877 340.006 157.877V159.049Z" fill="#E0CB96"/>
<path d="M378.58 160.221C375.781 160.221 373.095 159.814 370.523 159C367.984 158.219 365.901 156.917 364.273 155.094C362.646 153.238 361.832 150.748 361.832 147.623C361.832 144.856 362.548 142.594 363.98 140.836C365.445 139.046 367.366 137.516 369.742 136.246C372.118 134.944 374.755 133.691 377.652 132.486L382.096 130.533C379.166 126.627 376.236 123.144 373.307 120.084C370.377 116.992 368.082 115.169 366.422 114.615V112.857L366.666 112.809C374.739 110.465 381.152 109.293 385.904 109.293C392.154 109.293 396.842 110.969 399.967 114.322C403.124 117.675 404.703 122.835 404.703 129.801V149.381C404.703 151.985 405.208 154.068 406.217 155.631C407.258 157.161 408.3 157.926 409.342 157.926V159.049H404.703C399.267 159.049 396.24 155.842 395.621 149.43C394.775 151.48 393.57 153.32 392.008 154.947C390.478 156.542 388.59 157.828 386.344 158.805C384.098 159.749 381.51 160.221 378.58 160.221ZM384.049 129.654L395.279 124.674C394.986 119.921 394.189 116.471 392.887 114.322C391.617 112.141 389.729 111.051 387.223 111.051C385.432 111.051 383.902 111.751 382.633 113.15C381.363 114.55 380.729 116.78 380.729 119.84C380.729 123.062 381.51 125.829 383.072 128.141L384.049 129.654ZM381.949 157.389C384.781 157.389 387.206 156.624 389.225 155.094C391.243 153.564 392.773 151.611 393.814 149.234C394.889 146.858 395.426 144.4 395.426 141.861C395.426 132.617 395.41 127.506 395.377 126.529L385.074 131.119L388.59 136.539H386.393C385.416 135.042 384.342 133.512 383.17 131.949L380.777 133.072C378.824 133.886 377.164 134.798 375.797 135.807C374.43 136.783 373.372 138.053 372.623 139.615C371.907 141.145 371.549 143.229 371.549 145.865C371.549 148.372 372.021 150.488 372.965 152.213C373.909 153.906 375.162 155.191 376.725 156.07C378.32 156.949 380.061 157.389 381.949 157.389Z" fill="#E0CB96"/>
<path d="M150.699 160.27C146.174 160.27 142.024 159.342 138.248 157.486C134.472 155.631 131.445 152.815 129.166 149.039C126.92 145.263 125.797 140.51 125.797 134.781C125.797 129.052 126.92 124.316 129.166 120.572C131.445 116.796 134.472 113.98 138.248 112.125C142.024 110.27 146.174 109.342 150.699 109.342C155.257 109.342 159.407 110.27 163.15 112.125C166.926 113.98 169.938 116.796 172.184 120.572C174.462 124.316 175.602 129.052 175.602 134.781C175.602 140.51 174.462 145.263 172.184 149.039C169.938 152.815 166.926 155.631 163.15 157.486C159.407 159.342 155.257 160.27 150.699 160.27ZM153.824 158.121C154.801 158.121 155.81 157.991 156.852 157.73C159.716 156.982 161.995 155.305 163.688 152.701C165.413 150.097 166.275 146.581 166.275 142.154C166.275 138.932 165.738 135.237 164.664 131.07C163.427 126.546 161.913 122.851 160.123 119.986C158.333 117.089 156.363 114.957 154.215 113.59C152.066 112.19 149.869 111.49 147.623 111.49C146.614 111.49 145.589 111.62 144.547 111.881C141.682 112.63 139.387 114.306 137.662 116.91C135.969 119.514 135.123 123.03 135.123 127.457C135.123 130.68 135.66 134.374 136.734 138.541C137.971 143.066 139.485 146.777 141.275 149.674C143.066 152.538 145.035 154.671 147.184 156.07C149.365 157.438 151.578 158.121 153.824 158.121Z" stroke="#332922" stroke-width="3" mask="url(#path-1-outside-1_13_177)"/>
<path d="M231.266 159H212.76V157.828C213.443 157.828 214.143 157.649 214.859 157.291C215.576 156.9 216.178 156.331 216.666 155.582C217.154 154.801 217.398 153.808 217.398 152.604V129.605C217.398 126.513 217.268 123.714 217.008 121.207C216.747 118.701 216.129 116.715 215.152 115.25C214.208 113.785 212.63 113.053 210.416 113.053C208.04 113.053 205.924 113.997 204.068 115.885C202.245 117.74 200.374 120.507 198.453 124.186L192.936 134.684V152.604C192.936 153.808 193.18 154.801 193.668 155.582C194.156 156.331 194.758 156.9 195.475 157.291C196.191 157.649 196.891 157.828 197.574 157.828V159H179.068V157.828C179.785 157.828 180.484 157.649 181.168 157.291C181.884 156.9 182.486 156.331 182.975 155.582C183.463 154.801 183.707 153.808 183.707 152.604L183.854 117.301C183.854 116.096 183.609 115.12 183.121 114.371C182.633 113.59 182.031 113.02 181.314 112.662C180.631 112.304 179.931 112.125 179.215 112.125V110.953H183.854C185.676 110.953 187.337 110.807 188.834 110.514C190.331 110.188 191.373 109.749 191.959 109.195H193.082L192.936 131.021L196.549 124.186C198.079 121.223 199.658 118.619 201.285 116.373C202.913 114.127 204.752 112.369 206.803 111.1C208.886 109.83 211.376 109.195 214.273 109.195C217.464 109.195 219.954 109.977 221.744 111.539C223.535 113.069 224.788 115.429 225.504 118.619C226.253 121.777 226.627 125.797 226.627 130.68V152.604C226.627 153.808 226.871 154.801 227.359 155.582C227.848 156.331 228.45 156.9 229.166 157.291C229.882 157.649 230.582 157.828 231.266 157.828V159Z" stroke="#332922" stroke-width="3" mask="url(#path-1-outside-1_13_177)"/>
<path d="M251.48 159C241.161 159 236.002 154.003 236.002 144.01V110.953H228.971V109.244C230.794 109.244 232.698 108.495 234.684 106.998C236.702 105.468 238.508 103.564 240.104 101.285C241.699 98.974 242.838 96.5814 243.521 94.1074H245.23V109.244H264.322V110.953H245.23V146.158C245.23 149.674 245.735 152.408 246.744 154.361C247.753 156.314 249.169 157.291 250.992 157.291C254.215 157.291 255.826 154.443 255.826 148.746C255.826 145.556 254.752 141.389 252.604 136.246L249.186 128.238H251.188C252.783 132.112 254.492 135.855 256.314 139.469C258.137 143.049 259.96 146.028 261.783 148.404C263.639 150.748 265.331 151.92 266.861 151.92V153.678C265.657 154.036 264.306 154.638 262.809 155.484C261.311 156.331 259.635 157.128 257.779 157.877C255.924 158.626 253.824 159 251.48 159Z" stroke="#332922" stroke-width="3" mask="url(#path-1-outside-1_13_177)"/>
<path d="M284.537 160.221C279.817 160.221 276.497 158.479 274.576 154.996C272.688 151.48 271.744 146.061 271.744 138.736L271.646 117.35C271.646 116.145 271.402 115.169 270.914 114.42C270.426 113.639 269.824 113.069 269.107 112.711C268.391 112.32 267.691 112.125 267.008 112.125V110.953H271.646C273.469 110.953 275.13 110.807 276.627 110.514C278.124 110.188 279.166 109.765 279.752 109.244H280.875L280.973 138.736C280.973 142.285 281.135 145.377 281.461 148.014C281.819 150.65 282.519 152.701 283.561 154.166C284.602 155.631 286.214 156.363 288.395 156.363C290.771 156.363 292.659 155.436 294.059 153.58C295.458 151.725 297.053 148.925 298.844 145.182L304.117 134.732L304.02 117.35C304.02 116.145 303.775 115.169 303.287 114.42C302.831 113.639 302.245 113.069 301.529 112.711C300.813 112.32 300.113 112.125 299.43 112.125V110.953H304.02C305.842 110.953 307.503 110.807 309 110.514C310.53 110.188 311.572 109.765 312.125 109.244H313.297L313.395 152.652C313.395 153.857 313.639 154.85 314.127 155.631C314.615 156.412 315.217 156.982 315.934 157.34C316.65 157.698 317.35 157.877 318.033 157.877V159.049H311.637C308.772 159.049 306.803 158.023 305.729 155.973C304.654 153.889 304.117 150.585 304.117 146.061V138.541L300.797 145.182C299.332 148.209 297.9 150.846 296.5 153.092C295.1 155.338 293.489 157.096 291.666 158.365C289.843 159.602 287.467 160.221 284.537 160.221Z" stroke="#332922" stroke-width="3" mask="url(#path-1-outside-1_13_177)"/>
<path d="M340.006 159.049H321.5V157.877C322.216 157.877 322.916 157.698 323.6 157.34C324.316 156.949 324.918 156.38 325.406 155.631C325.895 154.85 326.139 153.857 326.139 152.652V117.398C326.139 116.194 325.895 115.217 325.406 114.469C324.918 113.688 324.316 113.118 323.6 112.76C322.916 112.402 322.216 112.223 321.5 112.223V111.051H326.139C327.962 111.051 329.622 110.904 331.119 110.611C332.617 110.286 333.658 109.846 334.244 109.293H335.367V127.701L338.15 119.84C339.257 116.52 340.934 113.932 343.18 112.076C345.426 110.188 348.128 109.244 351.285 109.244C353.499 109.244 356.396 109.749 359.977 110.758C360.79 110.986 361.425 111.148 361.881 111.246V112.369C360.058 112.369 358.121 115.169 356.07 120.768C354.475 125.097 352.962 130.338 351.529 136.49H349.82L352.018 125.992C352.18 125.048 352.262 124.186 352.262 123.404C352.262 119.726 350.569 117.805 347.184 117.643C344.938 117.643 342.903 118.57 341.08 120.426C339.257 122.249 337.825 124.771 336.783 127.994L335.367 132.291V152.652C335.367 153.857 335.611 154.85 336.1 155.631C336.588 156.38 337.19 156.949 337.906 157.34C338.622 157.698 339.322 157.877 340.006 157.877V159.049Z" stroke="#332922" stroke-width="3" mask="url(#path-1-outside-1_13_177)"/>
<path d="M378.58 160.221C375.781 160.221 373.095 159.814 370.523 159C367.984 158.219 365.901 156.917 364.273 155.094C362.646 153.238 361.832 150.748 361.832 147.623C361.832 144.856 362.548 142.594 363.98 140.836C365.445 139.046 367.366 137.516 369.742 136.246C372.118 134.944 374.755 133.691 377.652 132.486L382.096 130.533C379.166 126.627 376.236 123.144 373.307 120.084C370.377 116.992 368.082 115.169 366.422 114.615V112.857L366.666 112.809C374.739 110.465 381.152 109.293 385.904 109.293C392.154 109.293 396.842 110.969 399.967 114.322C403.124 117.675 404.703 122.835 404.703 129.801V149.381C404.703 151.985 405.208 154.068 406.217 155.631C407.258 157.161 408.3 157.926 409.342 157.926V159.049H404.703C399.267 159.049 396.24 155.842 395.621 149.43C394.775 151.48 393.57 153.32 392.008 154.947C390.478 156.542 388.59 157.828 386.344 158.805C384.098 159.749 381.51 160.221 378.58 160.221ZM384.049 129.654L395.279 124.674C394.986 119.921 394.189 116.471 392.887 114.322C391.617 112.141 389.729 111.051 387.223 111.051C385.432 111.051 383.902 111.751 382.633 113.15C381.363 114.55 380.729 116.78 380.729 119.84C380.729 123.062 381.51 125.829 383.072 128.141L384.049 129.654ZM381.949 157.389C384.781 157.389 387.206 156.624 389.225 155.094C391.243 153.564 392.773 151.611 393.814 149.234C394.889 146.858 395.426 144.4 395.426 141.861C395.426 132.617 395.41 127.506 395.377 126.529L385.074 131.119L388.59 136.539H386.393C385.416 135.042 384.342 133.512 383.17 131.949L380.777 133.072C378.824 133.886 377.164 134.798 375.797 135.807C374.43 136.783 373.372 138.053 372.623 139.615C371.907 141.145 371.549 143.229 371.549 145.865C371.549 148.372 372.021 150.488 372.965 152.213C373.909 153.906 375.162 155.191 376.725 156.07C378.32 156.949 380.061 157.389 381.949 157.389Z" stroke="#332922" stroke-width="3" mask="url(#path-1-outside-1_13_177)"/>
<g clip-path="url(#clip0_13_177)">
<path d="M38.8075 159.528V156.043H39.5527C41.6818 156.043 43.4107 155.617 44.7265 154.786C46.004 153.979 46.9643 152.31 47.6051 149.823C48.2801 147.205 48.6207 143.281 48.6207 138.158V52.3256C48.6207 50.222 48.1502 48.4931 47.2197 47.1858C46.3284 45.903 45.1243 44.8689 43.7216 44.1816C42.4257 43.5357 41.0005 43.1914 39.5527 43.1745H38.8075V39.7679H102.929C112.201 39.7679 119.983 39.1036 126.058 37.7899L126.696 37.6494L128.146 41.8778L127.461 42.1291C125.159 42.9658 121.827 46.0765 117.556 51.3781C112.404 57.7719 108.173 64.2658 104.99 70.6532C104.89 70.8512 104.694 71.2281 104.432 71.7327C103.367 73.766 101.168 77.9967 99.914 81.0009L99.7223 81.4586H95.1766L97.4186 75.8313C100.229 69.0053 100.41 64.2424 99.7756 58.3148C98.7344 48.6081 93.8523 44.3796 83.4514 44.1752H67.8277V104.809H86.626C88.2058 104.809 89.3087 104.307 89.9985 103.27C90.7437 102.152 91.1206 100.683 91.1206 98.9006C91.1206 96.1093 88.4613 89.3706 85.9894 84.2883L85.4677 83.2237H90.056L111.637 125.012H106.527L106.314 124.587C105.091 122.147 103.628 119.835 101.945 117.686C100.221 115.427 98.2182 113.395 95.9836 111.639C93.9098 110.032 91.7955 109.216 89.7047 109.216H67.8277V138.173C67.8277 142.686 68.2089 146.327 68.9626 148.989C69.6865 151.544 71.0917 153.313 73.2379 154.388C75.4501 155.495 78.8354 156.058 83.3002 156.058H93.8587V159.543L38.8075 159.528Z" fill="#E0CB96"/>
<path d="M126.215 38.5201L127.214 41.4306C124.774 42.3178 121.364 45.4781 116.983 50.9117C112.604 56.3474 108.017 62.9094 104.323 70.321C103.819 71.3323 100.8 76.9469 99.2262 80.7134H96.2752L98.1106 76.1059C100.878 69.3842 101.202 64.6362 100.517 58.236C99.486 48.642 94.8317 43.6534 83.4663 43.432H67.0825V105.554H86.626C88.457 105.554 89.7877 104.93 90.6181 103.683C91.4485 102.435 91.8644 100.841 91.8658 98.9005C91.8658 95.6301 88.655 88.0674 86.66 83.9624H89.6025L110.423 124.267H107.017C105.772 121.782 104.281 119.429 102.567 117.241C100.801 114.924 98.7467 112.842 96.4541 111.045C94.2355 109.328 91.99 108.468 89.7175 108.467H67.0825V138.158C67.0825 142.761 67.4707 146.434 68.2472 149.176C69.0236 151.918 70.5758 153.873 72.9036 155.04C75.2329 156.204 78.6984 156.786 83.3002 156.788H93.1135V158.783H39.5527V156.788C41.8238 156.788 43.6811 156.33 45.1247 155.414C46.5682 154.499 47.6328 152.697 48.3184 150.009C49.0111 147.32 49.3574 143.37 49.3574 138.158V52.3255C49.3574 50.0544 48.845 48.197 47.8202 46.7535C46.8605 45.365 45.5598 44.2469 44.0431 43.5065C42.6479 42.8093 41.1122 42.4394 39.5527 42.4249V40.5087H102.929C112.297 40.5087 120.059 39.8437 126.215 38.5137M127.197 36.7763L125.9 37.0574C119.879 38.3646 112.15 39.0353 102.929 39.0353H38.0623V43.9324H39.5527C40.8884 43.9493 42.2029 44.2681 43.3979 44.8649C44.6913 45.4944 45.7996 46.4479 46.6151 47.6328C47.4518 48.8102 47.8755 50.4007 47.8755 52.3404V138.158C47.8755 143.219 47.5434 147.081 46.8833 149.636C46.2914 151.935 45.4313 153.456 44.3284 154.156C43.136 154.912 41.5285 155.297 39.5548 155.297H38.0644V160.273H94.6039V155.297H83.3002C78.9525 155.297 75.68 154.763 73.57 153.707C71.6155 152.73 70.3423 151.116 69.6801 148.771C68.9455 146.174 68.5729 142.597 68.5729 138.158V109.955H89.7047C91.6209 109.955 93.5861 110.717 95.5279 112.223C97.7202 113.942 99.6842 115.934 101.372 118.15C103.026 120.258 104.464 122.526 105.665 124.921L106.074 125.758H112.861L111.737 123.584L90.9247 83.279L90.5095 82.4699H84.2775L85.3187 84.6118C87.8332 89.7793 90.3754 96.3455 90.3754 98.8984C90.3754 100.531 90.0411 101.862 89.3789 102.854C89.034 103.372 88.3719 104.062 86.626 104.062H68.5729V44.9182H83.4514C93.5137 45.1183 98.0297 49.021 99.0346 58.3893C99.6734 64.336 99.4945 68.8221 96.733 75.5353L94.8806 80.1576L94.0694 82.1974H96.2646H99.2156H100.21L100.593 81.2797C101.834 78.2989 104.03 74.096 105.084 72.0733C105.35 71.558 105.543 71.1876 105.648 70.9789C108.807 64.6404 113.008 58.204 118.135 51.84C123.349 45.3717 126.226 43.3681 127.716 42.8252L129.092 42.3249L128.617 40.9409L127.618 38.0304L127.193 36.7763H127.197Z" fill="#332922"/>
<path d="M42.7464 38.2625H36.359V44.6499H42.7464V38.2625Z" fill="#332922"/>
<path d="M41.6818 39.3271V43.5854H37.4235V39.3271H41.6818ZM43.811 37.198H35.2944V45.7146H43.811V37.198Z" fill="#332922"/>
<path d="M130.408 36.6359H124.02V43.0233H130.408V36.6359Z" fill="#332922"/>
<path d="M129.343 37.7004V41.9587H125.085V37.7004H129.343ZM131.472 35.5713H122.956V44.0879H131.472V35.5713Z" fill="#332922"/>
<path d="M101.234 77.5623H94.8466V83.9497H101.234V77.5623Z" fill="#332922"/>
<path d="M100.167 78.6375V82.8958H95.9091V78.6375H100.167ZM102.296 76.5084H93.7799V85.0249H102.296V76.5084Z" fill="#332922"/>
<path d="M91.3357 80.3323H84.9482V86.7197H91.3357V80.3323Z" fill="#332922"/>
<path d="M90.2711 81.4054V85.6637H86.0128V81.4054H90.2711ZM92.4002 79.2762H83.8836V87.7928H92.4002V79.2762Z" fill="#332922"/>
<path d="M111.886 121.352H105.499V127.74H111.886V121.352Z" fill="#332922"/>
<path d="M110.822 122.417V126.675H106.563V122.417H110.822ZM112.951 120.288H104.434V128.804H112.951V120.288Z" fill="#332922"/>
<path d="M96.3114 154.58H89.924V160.967H96.3114V154.58Z" fill="#332922"/>
<path d="M95.2468 155.642V159.901H90.9885V155.642H95.2468ZM97.376 153.513H88.8594V162.03H97.376V153.513Z" fill="#332922"/>
<path d="M42.7464 154.58H36.359V160.967H42.7464V154.58Z" fill="#332922"/>
<path d="M41.6818 155.642V159.901H37.4235V155.642H41.6818ZM43.811 153.513H35.2944V162.03H43.811V153.513Z" fill="#332922"/>
<path d="M140.11 52.7237L113.762 26.3777" stroke="#332922" stroke-width="0.425829" stroke-miterlimit="10"/>
<path d="M140.11 53.8947C140.757 53.8947 141.281 53.3704 141.281 52.7236C141.281 52.0769 140.757 51.5526 140.11 51.5526C139.463 51.5526 138.939 52.0769 138.939 52.7236C138.939 53.3704 139.463 53.8947 140.11 53.8947Z" fill="#332922"/>
<path d="M140.108 51.7656C140.297 51.7656 140.483 51.8217 140.64 51.927C140.798 52.0323 140.921 52.1819 140.993 52.357C141.066 52.5321 141.085 52.7247 141.048 52.9106C141.011 53.0964 140.919 53.2672 140.785 53.4012C140.651 53.5352 140.481 53.6264 140.295 53.6634C140.109 53.7003 139.916 53.6814 139.741 53.6089C139.566 53.5363 139.417 53.4135 139.311 53.256C139.206 53.0984 139.15 52.9132 139.15 52.7237C139.15 52.5978 139.174 52.4731 139.222 52.3567C139.27 52.2403 139.341 52.1346 139.43 52.0456C139.519 51.9565 139.625 51.886 139.741 51.8379C139.857 51.7899 139.982 51.7653 140.108 51.7656ZM140.108 51.3397C139.834 51.3397 139.567 51.4209 139.339 51.573C139.112 51.725 138.934 51.9412 138.829 52.1941C138.725 52.4469 138.697 52.7252 138.751 52.9937C138.804 53.2621 138.936 53.5087 139.129 53.7023C139.323 53.8958 139.57 54.0276 139.838 54.081C140.106 54.1344 140.385 54.107 140.638 54.0023C140.891 53.8975 141.107 53.7201 141.259 53.4925C141.411 53.265 141.492 52.9974 141.492 52.7237C141.491 52.3568 141.345 52.0051 141.086 51.7457C140.827 51.4863 140.475 51.3403 140.108 51.3397Z" fill="#332922"/>
<path d="M113.77 27.555C114.417 27.555 114.941 27.0307 114.941 26.384C114.941 25.7372 114.417 25.213 113.77 25.213C113.124 25.213 112.599 25.7372 112.599 26.384C112.599 27.0307 113.124 27.555 113.77 27.555Z" fill="#332922"/>
<path d="M113.768 25.426C113.958 25.426 114.143 25.4821 114.301 25.5874C114.458 25.6927 114.581 25.8423 114.654 26.0174C114.726 26.1925 114.745 26.3851 114.708 26.571C114.671 26.7568 114.58 26.9276 114.446 27.0616C114.312 27.1956 114.141 27.2868 113.955 27.3238C113.769 27.3607 113.577 27.3418 113.402 27.2692C113.227 27.1967 113.077 27.0739 112.972 26.9164C112.866 26.7588 112.81 26.5736 112.81 26.3841C112.81 26.2582 112.835 26.1334 112.883 26.0171C112.931 25.9007 113.001 25.795 113.09 25.706C113.179 25.6169 113.285 25.5464 113.401 25.4983C113.518 25.4503 113.642 25.4257 113.768 25.426ZM113.768 25.0001C113.495 25.0001 113.227 25.0813 112.999 25.2334C112.772 25.3854 112.594 25.6016 112.49 25.8545C112.385 26.1073 112.358 26.3856 112.411 26.6541C112.464 26.9225 112.596 27.1691 112.79 27.3627C112.983 27.5562 113.23 27.688 113.498 27.7414C113.767 27.7948 114.045 27.7674 114.298 27.6627C114.551 27.5579 114.767 27.3805 114.919 27.1529C115.071 26.9254 115.152 26.6578 115.152 26.3841C115.152 26.0172 115.006 25.6655 114.746 25.4061C114.487 25.1467 114.135 25.0007 113.768 25.0001Z" fill="#332922"/>
<path d="M52.7236 170.936L26.3775 144.588" stroke="#332922" stroke-width="0.425829" stroke-miterlimit="10"/>
<path d="M52.7236 172.107C53.3703 172.107 53.8946 171.583 53.8946 170.936C53.8946 170.289 53.3703 169.765 52.7236 169.765C52.0768 169.765 51.5526 170.289 51.5526 170.936C51.5526 171.583 52.0768 172.107 52.7236 172.107Z" fill="#332922"/>
<path d="M52.7236 169.978C52.9131 169.978 53.0983 170.034 53.2559 170.139C53.4134 170.245 53.5362 170.394 53.6088 170.569C53.6813 170.744 53.7003 170.937 53.6633 171.123C53.6263 171.309 53.5351 171.479 53.4011 171.613C53.2671 171.747 53.0963 171.839 52.9105 171.876C52.7246 171.913 52.532 171.894 52.3569 171.821C52.1818 171.749 52.0322 171.626 51.9269 171.468C51.8217 171.311 51.7655 171.125 51.7655 170.936C51.766 170.682 51.8671 170.439 52.0467 170.259C52.2263 170.08 52.4696 169.978 52.7236 169.978ZM52.7236 169.552C52.4499 169.552 52.1823 169.633 51.9547 169.785C51.7271 169.937 51.5497 170.153 51.445 170.406C51.3402 170.659 51.3128 170.937 51.3662 171.206C51.4196 171.474 51.5514 171.721 51.745 171.915C51.9385 172.108 52.1851 172.24 52.4536 172.293C52.722 172.347 53.0003 172.319 53.2532 172.215C53.5061 172.11 53.7222 171.932 53.8743 171.705C54.0264 171.477 54.1075 171.21 54.1075 170.936C54.107 170.569 53.961 170.217 53.7015 169.958C53.4421 169.699 53.0904 169.553 52.7236 169.552Z" fill="#332922"/>
<path d="M26.3839 145.767C27.0307 145.767 27.555 145.243 27.555 144.596C27.555 143.95 27.0307 143.425 26.3839 143.425C25.7372 143.425 25.2129 143.95 25.2129 144.596C25.2129 145.243 25.7372 145.767 26.3839 145.767Z" fill="#332922"/>
<path d="M26.3839 143.636C26.5734 143.636 26.7587 143.692 26.9162 143.798C27.0738 143.903 27.1966 144.052 27.2691 144.227C27.3416 144.403 27.3606 144.595 27.3237 144.781C27.2867 144.967 27.1954 145.138 27.0614 145.272C26.9274 145.406 26.7567 145.497 26.5709 145.534C26.385 145.571 26.1924 145.552 26.0173 145.479C25.8422 145.407 25.6926 145.284 25.5873 145.126C25.482 144.969 25.4258 144.784 25.4258 144.594C25.4264 144.34 25.5275 144.097 25.7071 143.917C25.8866 143.738 26.13 143.637 26.3839 143.636ZM26.3839 143.21C26.1102 143.21 25.8427 143.291 25.6151 143.443C25.3875 143.596 25.2101 143.812 25.1053 144.065C25.0006 144.317 24.9732 144.596 25.0266 144.864C25.08 145.133 25.2118 145.379 25.4053 145.573C25.5989 145.766 25.8455 145.898 26.114 145.951C26.3824 146.005 26.6607 145.977 26.9136 145.873C27.1664 145.768 27.3826 145.591 27.5347 145.363C27.6867 145.135 27.7679 144.868 27.7679 144.594C27.7673 144.227 27.6213 143.876 27.3619 143.616C27.1025 143.357 26.7508 143.211 26.3839 143.21Z" fill="#332922"/>
<path d="M79.949 170.938L106.295 144.592" stroke="#332922" stroke-width="0.425829" stroke-miterlimit="10"/>
<path d="M79.949 172.109C80.5957 172.109 81.12 171.585 81.12 170.938C81.12 170.291 80.5957 169.767 79.949 169.767C79.3022 169.767 78.778 170.291 78.778 170.938C78.778 171.585 79.3022 172.109 79.949 172.109Z" fill="#332922"/>
<path d="M79.9468 169.978C80.1363 169.978 80.3216 170.034 80.4791 170.139C80.6367 170.245 80.7595 170.394 80.832 170.569C80.9045 170.744 80.9235 170.937 80.8865 171.123C80.8496 171.309 80.7583 171.479 80.6243 171.613C80.4903 171.747 80.3196 171.839 80.1338 171.876C79.9479 171.913 79.7553 171.894 79.5802 171.821C79.4051 171.749 79.2555 171.626 79.1502 171.468C79.0449 171.311 78.9887 171.125 78.9887 170.936C78.9887 170.682 79.0897 170.438 79.2693 170.258C79.449 170.079 79.6927 169.978 79.9468 169.978ZM79.9468 169.552C79.6731 169.552 79.4055 169.633 79.178 169.785C78.9504 169.937 78.773 170.153 78.6682 170.406C78.5635 170.659 78.5361 170.937 78.5895 171.206C78.6429 171.474 78.7747 171.721 78.9682 171.915C79.1618 172.108 79.4084 172.24 79.6768 172.293C79.9453 172.347 80.2236 172.319 80.4765 172.215C80.7293 172.11 80.9455 171.932 81.0976 171.705C81.2496 171.477 81.3308 171.21 81.3308 170.936C81.3302 170.569 81.1842 170.217 80.9248 169.958C80.6654 169.699 80.3137 169.553 79.9468 169.552Z" fill="#332922"/>
<path d="M106.287 145.769C106.933 145.769 107.458 145.245 107.458 144.598C107.458 143.952 106.933 143.427 106.287 143.427C105.64 143.427 105.115 143.952 105.115 144.598C105.115 145.245 105.64 145.769 106.287 145.769Z" fill="#332922"/>
<path d="M106.287 143.64C106.476 143.64 106.661 143.697 106.819 143.802C106.976 143.907 107.099 144.057 107.172 144.232C107.244 144.407 107.263 144.599 107.226 144.785C107.189 144.971 107.098 145.142 106.964 145.276C106.83 145.41 106.659 145.501 106.473 145.538C106.288 145.575 106.095 145.556 105.92 145.484C105.745 145.411 105.595 145.288 105.49 145.131C105.385 144.973 105.328 144.788 105.328 144.598C105.328 144.344 105.429 144.101 105.609 143.921C105.789 143.741 106.032 143.64 106.287 143.64ZM106.287 143.214C106.013 143.214 105.745 143.296 105.518 143.448C105.29 143.6 105.113 143.816 105.008 144.069C104.903 144.322 104.876 144.6 104.929 144.868C104.983 145.137 105.114 145.383 105.308 145.577C105.501 145.771 105.748 145.902 106.017 145.956C106.285 146.009 106.563 145.982 106.816 145.877C107.069 145.772 107.285 145.595 107.437 145.367C107.589 145.14 107.67 144.872 107.67 144.598C107.67 144.232 107.524 143.88 107.265 143.62C107.005 143.361 106.653 143.215 106.287 143.214Z" fill="#332922"/>
<path d="M95.728 137.51L122.074 111.164" stroke="#332922" stroke-width="0.425829" stroke-miterlimit="10"/>
<path d="M95.7281 138.681C96.3748 138.681 96.8991 138.157 96.8991 137.51C96.8991 136.864 96.3748 136.339 95.7281 136.339C95.0814 136.339 94.5571 136.864 94.5571 137.51C94.5571 138.157 95.0814 138.681 95.7281 138.681Z" fill="#332922"/>
<path d="M95.7323 136.55C95.9218 136.55 96.1071 136.606 96.2646 136.712C96.4222 136.817 96.545 136.967 96.6175 137.142C96.69 137.317 96.709 137.509 96.672 137.695C96.6351 137.881 96.5438 138.052 96.4098 138.186C96.2758 138.32 96.1051 138.411 95.9192 138.448C95.7334 138.485 95.5407 138.466 95.3657 138.394C95.1906 138.321 95.041 138.198 94.9357 138.041C94.8304 137.883 94.7742 137.698 94.7742 137.508C94.7742 137.254 94.8752 137.011 95.0548 136.831C95.2345 136.651 95.4782 136.55 95.7323 136.55ZM95.7323 136.124C95.4586 136.124 95.191 136.206 94.9635 136.358C94.7359 136.51 94.5585 136.726 94.4537 136.979C94.349 137.232 94.3216 137.51 94.375 137.778C94.4284 138.047 94.5602 138.293 94.7537 138.487C94.9473 138.681 95.1939 138.812 95.4623 138.866C95.7308 138.919 96.0091 138.892 96.2619 138.787C96.5148 138.682 96.731 138.505 96.883 138.277C97.0351 138.05 97.1163 137.782 97.1163 137.508C97.1163 137.327 97.0805 137.147 97.0109 136.979C96.9414 136.811 96.8394 136.658 96.7109 136.53C96.5824 136.401 96.4299 136.299 96.2619 136.23C96.094 136.16 95.9141 136.124 95.7323 136.124Z" fill="#332922"/>
<path d="M122.068 112.342C122.714 112.342 123.239 111.818 123.239 111.171C123.239 110.524 122.714 110 122.068 110C121.421 110 120.897 110.524 120.897 111.171C120.897 111.818 121.421 112.342 122.068 112.342Z" fill="#332922"/>
<path d="M122.068 110.213C122.257 110.213 122.442 110.269 122.6 110.374C122.758 110.48 122.88 110.629 122.953 110.804C123.025 110.979 123.044 111.172 123.007 111.358C122.97 111.544 122.879 111.714 122.745 111.848C122.611 111.982 122.44 112.074 122.255 112.111C122.069 112.148 121.876 112.129 121.701 112.056C121.526 111.984 121.376 111.861 121.271 111.703C121.166 111.546 121.11 111.36 121.11 111.171C121.11 110.917 121.21 110.673 121.39 110.493C121.57 110.314 121.814 110.213 122.068 110.213ZM122.068 109.787C121.794 109.787 121.526 109.868 121.299 110.02C121.071 110.172 120.894 110.388 120.789 110.641C120.684 110.894 120.657 111.172 120.71 111.441C120.764 111.709 120.896 111.956 121.089 112.149C121.283 112.343 121.529 112.475 121.798 112.528C122.066 112.582 122.344 112.554 122.597 112.449C122.85 112.345 123.066 112.167 123.218 111.94C123.37 111.712 123.452 111.445 123.452 111.171C123.452 110.804 123.306 110.452 123.046 110.192C122.787 109.933 122.435 109.787 122.068 109.787Z" fill="#332922"/>
<path d="M96.222 66.7441L80.0597 100.317" stroke="#332922" stroke-width="0.425829" stroke-miterlimit="10"/>
<path d="M96.2199 67.9152C95.9487 67.9081 95.6883 67.8072 95.4833 67.6295C95.2782 67.4518 95.1413 67.2084 95.0957 66.9409C95.0502 66.6734 95.099 66.3985 95.2338 66.163C95.3685 65.9275 95.5809 65.7461 95.8345 65.6498C95.9582 65.6055 96.0886 65.5832 96.2199 65.5838C96.4964 65.5838 96.7639 65.6816 96.9752 65.86C97.1865 66.0383 97.3278 66.2857 97.3742 66.5582C97.4206 66.8308 97.3691 67.111 97.2288 67.3492C97.0884 67.5874 96.8683 67.7683 96.6074 67.8598C96.4823 67.9003 96.3513 67.919 96.2199 67.9152Z" fill="#332922"/>
<path d="M96.2199 65.786C96.4602 65.786 96.6916 65.8763 96.8684 66.039C97.0452 66.2016 97.1544 66.4248 97.1745 66.6641C97.1945 66.9035 97.1239 67.1417 96.9766 67.3315C96.8294 67.5213 96.6162 67.6488 96.3793 67.6888C96.1424 67.7289 95.8992 67.6784 95.6977 67.5475C95.4963 67.4167 95.3513 67.2149 95.2917 66.9822C95.232 66.7495 95.2619 66.5029 95.3754 66.2912C95.489 66.0795 95.6779 65.9182 95.9048 65.8392C96.0061 65.804 96.1127 65.786 96.2199 65.786ZM96.2199 65.3602C96.0641 65.3602 95.9094 65.3861 95.7622 65.4368C95.4163 65.5588 95.1329 65.813 94.9744 66.1437C94.8934 66.308 94.8464 66.487 94.8361 66.6699C94.8259 66.8528 94.8526 67.0359 94.9148 67.2083C95.0096 67.4788 95.1861 67.7132 95.4199 67.8791C95.6537 68.0451 95.9332 68.1343 96.2199 68.1344C96.3759 68.135 96.5308 68.1083 96.6777 68.0557C96.8494 67.9959 97.0077 67.9029 97.1434 67.7819C97.2791 67.6609 97.3897 67.5144 97.4688 67.3507C97.5479 67.187 97.594 67.0093 97.6043 66.8277C97.6147 66.6462 97.5892 66.4644 97.5293 66.2927C97.4341 66.022 97.2572 65.7875 97.0231 65.6216C96.7889 65.4557 96.509 65.3666 96.222 65.3666L96.2199 65.3602Z" fill="#332922"/>
<path d="M80.0618 101.479C79.7683 101.479 79.4855 101.369 79.2694 101.17C79.0533 100.972 78.9196 100.699 78.8949 100.407C78.8701 100.114 78.9561 99.8232 79.1358 99.5911C79.3155 99.359 79.5758 99.2029 79.8651 99.1536C80.1544 99.1043 80.4517 99.1655 80.6981 99.325C80.9445 99.4845 81.122 99.7307 81.1955 100.015C81.2689 100.299 81.233 100.6 81.0948 100.859C80.9567 101.118 80.7263 101.316 80.4493 101.413C80.3246 101.456 80.1937 101.478 80.0618 101.479Z" fill="#332922"/>
<path d="M80.0618 99.3477C80.2884 99.3472 80.5079 99.427 80.6813 99.5729C80.8546 99.7189 80.9706 99.9216 81.0087 100.145C81.0467 100.368 81.0043 100.598 80.889 100.793C80.7738 100.988 80.5931 101.136 80.379 101.211C80.2774 101.248 80.17 101.267 80.0618 101.266C79.8353 101.266 79.6162 101.186 79.4432 101.04C79.2703 100.894 79.1546 100.691 79.1169 100.468C79.0791 100.244 79.1217 100.015 79.2369 99.8202C79.3522 99.6253 79.5328 99.4775 79.7467 99.4031C79.8479 99.3672 79.9544 99.3485 80.0618 99.3477ZM80.0618 98.9219C79.8594 98.9206 79.6591 98.9637 79.4751 99.0481C79.2911 99.1325 79.1278 99.2562 78.9967 99.4104C78.8657 99.5647 78.77 99.7458 78.7164 99.941C78.6628 100.136 78.6526 100.341 78.6866 100.54C78.7205 100.74 78.7978 100.93 78.9129 101.096C79.028 101.263 79.1782 101.402 79.3529 101.504C79.5276 101.606 79.7226 101.669 79.9241 101.688C80.1257 101.707 80.3289 101.681 80.5196 101.613C80.6913 101.553 80.8495 101.46 80.9853 101.339C81.121 101.218 81.2316 101.072 81.3107 100.908C81.3898 100.744 81.4358 100.567 81.4462 100.385C81.4566 100.204 81.4311 100.022 81.3712 99.8502C81.2764 99.5791 81.0996 99.3442 80.8654 99.1779C80.6312 99.0116 80.3512 98.9221 80.0639 98.9219H80.0618Z" fill="#332922"/>
<path d="M52.7278 28.2833L26.3797 54.6293" stroke="#332922" stroke-width="0.425829" stroke-miterlimit="10"/>
<path d="M52.7278 29.4542C53.3746 29.4542 53.8989 28.93 53.8989 28.2832C53.8989 27.6365 53.3746 27.1122 52.7278 27.1122C52.0811 27.1122 51.5568 27.6365 51.5568 28.2832C51.5568 28.93 52.0811 29.4542 52.7278 29.4542Z" fill="#332922"/>
<path d="M52.7236 27.3251C52.9131 27.3251 53.0983 27.3813 53.2559 27.4866C53.4134 27.5919 53.5362 27.7415 53.6088 27.9166C53.6813 28.0917 53.7003 28.2843 53.6633 28.4702C53.6263 28.656 53.5351 28.8267 53.4011 28.9607C53.2671 29.0947 53.0963 29.186 52.9105 29.2229C52.7246 29.2599 52.532 29.2409 52.3569 29.1684C52.1818 29.0959 52.0322 28.9731 51.9269 28.8155C51.8217 28.658 51.7655 28.4727 51.7655 28.2832C51.7652 28.1573 51.7898 28.0326 51.8378 27.9163C51.8859 27.7999 51.9564 27.6941 52.0455 27.6051C52.1345 27.5161 52.2402 27.4455 52.3566 27.3975C52.473 27.3494 52.5977 27.3248 52.7236 27.3251ZM52.7236 26.8993C52.4499 26.8993 52.1823 26.9805 51.9547 27.1325C51.7271 27.2846 51.5497 27.5007 51.445 27.7536C51.3402 28.0065 51.3128 28.2848 51.3662 28.5532C51.4196 28.8217 51.5514 29.0683 51.745 29.2618C51.9385 29.4554 52.1851 29.5872 52.4536 29.6406C52.722 29.694 53.0003 29.6666 53.2532 29.5618C53.5061 29.4571 53.7222 29.2797 53.8743 29.0521C54.0264 28.8245 54.1075 28.557 54.1075 28.2832C54.107 27.9164 53.961 27.5647 53.7015 27.3053C53.4421 27.0458 53.0904 26.8999 52.7236 26.8993Z" fill="#332922"/>
<path d="M26.3882 55.7938C27.0349 55.7938 27.5592 55.2696 27.5592 54.6228C27.5592 53.9761 27.0349 53.4518 26.3882 53.4518C25.7415 53.4518 25.2172 53.9761 25.2172 54.6228C25.2172 55.2696 25.7415 55.7938 26.3882 55.7938Z" fill="#332922"/>
<path d="M26.3861 53.6648C26.5755 53.6648 26.7608 53.721 26.9184 53.8263C27.0759 53.9315 27.1987 54.0812 27.2712 54.2562C27.3438 54.4313 27.3627 54.624 27.3258 54.8098C27.2888 54.9957 27.1975 55.1664 27.0635 55.3004C26.9295 55.4344 26.7588 55.5256 26.573 55.5626C26.3871 55.5996 26.1945 55.5806 26.0194 55.5081C25.8443 55.4356 25.6947 55.3128 25.5894 55.1552C25.4841 54.9976 25.4279 54.8124 25.4279 54.6229C25.4277 54.497 25.4522 54.3723 25.5003 54.2559C25.5483 54.1395 25.6189 54.0338 25.7079 53.9448C25.797 53.8558 25.9027 53.7852 26.0191 53.7371C26.1354 53.6891 26.2602 53.6645 26.3861 53.6648ZM26.3861 53.239C26.1123 53.239 25.8448 53.3201 25.6172 53.4722C25.3896 53.6243 25.2122 53.8404 25.1075 54.0933C25.0027 54.3462 24.9753 54.6244 25.0287 54.8929C25.0821 55.1613 25.2139 55.4079 25.4075 55.6015C25.601 55.795 25.8476 55.9268 26.1161 55.9802C26.3845 56.0336 26.6628 56.0062 26.9157 55.9015C27.1685 55.7967 27.3847 55.6194 27.5368 55.3918C27.6888 55.1642 27.77 54.8966 27.77 54.6229C27.7694 54.256 27.6234 53.9043 27.364 53.6449C27.1046 53.3855 26.7529 53.2395 26.3861 53.239Z" fill="#332922"/>
<path d="M110.543 94.5593L85.5294 66.9443" stroke="#332922" stroke-width="0.425829" stroke-miterlimit="10"/>
<path d="M110.485 95.7282C110.175 95.7208 109.88 95.5904 109.665 95.3656C109.451 95.1408 109.334 94.8401 109.342 94.5295C109.349 94.2189 109.48 93.924 109.704 93.7096C109.929 93.4951 110.23 93.3788 110.541 93.3861H110.6C110.91 93.4016 111.201 93.5394 111.41 93.7693C111.618 93.9993 111.727 94.3026 111.712 94.6125C111.697 94.9128 111.568 95.1961 111.35 95.4035C111.133 95.6109 110.843 95.7264 110.543 95.7261L110.485 95.7282Z" fill="#332922"/>
<path d="M110.541 93.6011H110.59C110.844 93.6074 111.085 93.7143 111.26 93.8983C111.435 94.0824 111.53 94.3286 111.524 94.5827C111.518 94.8368 111.411 95.078 111.227 95.2533C111.043 95.4286 110.797 95.5236 110.543 95.5174H110.496C110.37 95.5144 110.246 95.4868 110.131 95.4359C110.016 95.385 109.912 95.312 109.825 95.2209C109.738 95.1299 109.67 95.0226 109.624 94.9053C109.579 94.7879 109.557 94.6627 109.56 94.5369C109.563 94.4111 109.591 94.2871 109.642 94.172C109.692 94.0568 109.765 93.9529 109.857 93.866C109.948 93.7791 110.055 93.711 110.172 93.6655C110.29 93.6201 110.415 93.5982 110.541 93.6011ZM110.541 93.1753C110.174 93.1666 109.818 93.304 109.552 93.5573C109.287 93.8107 109.132 94.1592 109.124 94.5263C109.115 94.8933 109.252 95.2488 109.506 95.5145C109.759 95.7803 110.108 95.9345 110.475 95.9432H110.543C110.91 95.9522 111.265 95.8151 111.531 95.5619C111.797 95.3088 111.952 94.9604 111.961 94.5933C111.97 94.2263 111.833 93.8707 111.579 93.6048C111.326 93.3388 110.978 93.1844 110.611 93.1753H110.541Z" fill="#332922"/>
<path d="M85.4762 68.1217C85.3225 68.114 85.1719 68.0762 85.0328 68.0103C84.8938 67.9444 84.7691 67.8518 84.6659 67.7377C84.5627 67.6236 84.483 67.4903 84.4313 67.3454C84.3796 67.2005 84.357 67.0468 84.3648 66.8931C84.3795 66.593 84.5091 66.31 84.7267 66.1028C84.9442 65.8955 85.2332 65.7798 85.5337 65.7796H85.5933C85.9039 65.7872 86.1987 65.9179 86.4129 66.1429C86.6271 66.3679 86.7432 66.6688 86.7356 66.9794C86.7279 67.29 86.5973 67.5848 86.3723 67.799C86.1473 68.0132 85.8464 68.1293 85.5358 68.1217H85.4762Z" fill="#332922"/>
<path d="M85.5337 65.9925H85.5827C85.8368 65.9987 86.078 66.1056 86.2533 66.2897C86.4286 66.4738 86.5236 66.72 86.5174 66.9741C86.5112 67.2282 86.4043 67.4694 86.2202 67.6447C86.0361 67.82 85.79 67.915 85.5359 67.9088H85.4869C85.2328 67.9026 84.9915 67.7957 84.8163 67.6116C84.641 67.4275 84.546 67.1813 84.5522 66.9272C84.5584 66.6731 84.6653 66.4319 84.8494 66.2566C85.0334 66.0813 85.2796 65.9863 85.5337 65.9925ZM85.5337 65.5667C85.1667 65.5577 84.8111 65.6948 84.5452 65.948C84.2792 66.2011 84.1248 66.5495 84.1157 66.9166C84.1067 67.2836 84.2438 67.6392 84.497 67.9052C84.7501 68.1711 85.0985 68.3256 85.4656 68.3346H85.5359C85.7176 68.3391 85.8984 68.3077 86.0681 68.2423C86.2377 68.1769 86.3928 68.0787 86.5244 67.9533C86.6561 67.828 86.7618 67.6779 86.8355 67.5117C86.9092 67.3455 86.9494 67.1665 86.9539 66.9847C86.9583 66.803 86.927 66.6221 86.8616 66.4525C86.7961 66.2829 86.698 66.1278 86.5726 65.9961C86.4473 65.8645 86.2972 65.7588 86.131 65.6851C85.9648 65.6114 85.7857 65.5712 85.604 65.5667H85.5337Z" fill="#332922"/>
<path d="M37.6365 41.0304C38.4596 41.0304 39.1269 40.3631 39.1269 39.54C39.1269 38.7169 38.4596 38.0496 37.6365 38.0496C36.8133 38.0496 36.1461 38.7169 36.1461 39.54C36.1461 40.3631 36.8133 41.0304 37.6365 41.0304Z" fill="white"/>
<path d="M37.6364 38.4753C37.847 38.4753 38.0528 38.5378 38.2279 38.6547C38.403 38.7717 38.5394 38.938 38.62 39.1325C38.7006 39.327 38.7216 39.5411 38.6806 39.7476C38.6395 39.9541 38.5381 40.1438 38.3892 40.2927C38.2403 40.4415 38.0506 40.5429 37.8441 40.584C37.6376 40.6251 37.4236 40.604 37.2291 40.5234C37.0345 40.4428 36.8683 40.3064 36.7513 40.1313C36.6343 39.9563 36.5719 39.7504 36.5719 39.5399C36.5719 39.2575 36.684 38.9868 36.8837 38.7871C37.0833 38.5875 37.3541 38.4753 37.6364 38.4753ZM37.6364 37.6237C37.2575 37.6237 36.887 37.736 36.5718 37.9466C36.2567 38.1572 36.0111 38.4564 35.8661 38.8066C35.721 39.1567 35.6831 39.542 35.757 39.9137C35.831 40.2854 36.0135 40.6269 36.2815 40.8949C36.5495 41.1629 36.8909 41.3454 37.2626 41.4193C37.6343 41.4932 38.0196 41.4553 38.3698 41.3103C38.7199 41.1652 39.0192 40.9196 39.2297 40.6045C39.4403 40.2894 39.5527 39.9189 39.5527 39.5399C39.5527 39.0317 39.3508 38.5443 38.9914 38.1849C38.6321 37.8255 38.1447 37.6237 37.6364 37.6237Z" fill="#332922"/>
<path d="M41.4689 41.0304C42.292 41.0304 42.9593 40.3631 42.9593 39.54C42.9593 38.7169 42.292 38.0496 41.4689 38.0496C40.6458 38.0496 39.9785 38.7169 39.9785 39.54C39.9785 40.3631 40.6458 41.0304 41.4689 41.0304Z" fill="white"/>
<path d="M41.4689 38.4753C41.6795 38.4753 41.8853 38.5378 42.0603 38.6547C42.2354 38.7717 42.3719 38.938 42.4524 39.1325C42.533 39.327 42.5541 39.5411 42.513 39.7476C42.4719 39.9541 42.3706 40.1438 42.2217 40.2927C42.0728 40.4415 41.8831 40.5429 41.6766 40.584C41.4701 40.6251 41.256 40.604 41.0615 40.5234C40.867 40.4428 40.7007 40.3064 40.5837 40.1313C40.4668 39.9563 40.4043 39.7504 40.4043 39.5399C40.4043 39.2575 40.5165 38.9868 40.7161 38.7871C40.9158 38.5875 41.1866 38.4753 41.4689 38.4753ZM41.4689 37.6237C41.0899 37.6237 40.7194 37.736 40.4043 37.9466C40.0892 38.1572 39.8436 38.4564 39.6985 38.8066C39.5535 39.1567 39.5156 39.542 39.5895 39.9137C39.6634 40.2854 39.8459 40.6269 40.1139 40.8949C40.3819 41.1629 40.7234 41.3454 41.0951 41.4193C41.4668 41.4932 41.8521 41.4553 42.2022 41.3103C42.5524 41.1652 42.8516 40.9196 43.0622 40.6045C43.2728 40.2894 43.3851 39.9189 43.3851 39.5399C43.3851 39.0317 43.1832 38.5443 42.8239 38.1849C42.4645 37.8255 41.9771 37.6237 41.4689 37.6237Z" fill="#332922"/>
<path d="M37.6365 44.8628C38.4596 44.8628 39.1269 44.1955 39.1269 43.3724C39.1269 42.5493 38.4596 41.882 37.6365 41.882C36.8133 41.882 36.1461 42.5493 36.1461 43.3724C36.1461 44.1955 36.8133 44.8628 37.6365 44.8628Z" fill="white"/>
<path d="M37.6364 42.3078C37.847 42.3078 38.0528 42.3702 38.2279 42.4872C38.403 42.6042 38.5394 42.7704 38.62 42.965C38.7006 43.1595 38.7216 43.3735 38.6806 43.58C38.6395 43.7865 38.5381 43.9762 38.3892 44.1251C38.2403 44.274 38.0506 44.3754 37.8441 44.4165C37.6376 44.4575 37.4236 44.4365 37.2291 44.3559C37.0345 44.2753 36.8683 44.1389 36.7513 43.9638C36.6343 43.7887 36.5719 43.5829 36.5719 43.3723C36.5719 43.09 36.684 42.8192 36.8837 42.6196C37.0833 42.4199 37.3541 42.3078 37.6364 42.3078ZM37.6364 41.4561C37.2575 41.4561 36.887 41.5685 36.5718 41.7791C36.2567 41.9896 36.0111 42.2889 35.8661 42.639C35.721 42.9892 35.6831 43.3745 35.757 43.7462C35.831 44.1179 36.0135 44.4593 36.2815 44.7273C36.5495 44.9953 36.8909 45.1778 37.2626 45.2518C37.6343 45.3257 38.0196 45.2877 38.3698 45.1427C38.7199 44.9977 39.0192 44.7521 39.2297 44.4369C39.4403 44.1218 39.5527 43.7513 39.5527 43.3723C39.5527 42.8641 39.3508 42.3767 38.9914 42.0174C38.6321 41.658 38.1447 41.4561 37.6364 41.4561Z" fill="#332922"/>
<path d="M41.4689 44.8628C42.292 44.8628 42.9593 44.1955 42.9593 43.3724C42.9593 42.5493 42.292 41.882 41.4689 41.882C40.6458 41.882 39.9785 42.5493 39.9785 43.3724C39.9785 44.1955 40.6458 44.8628 41.4689 44.8628Z" fill="white"/>
<path d="M41.4689 42.3078C41.6795 42.3078 41.8853 42.3702 42.0603 42.4872C42.2354 42.6042 42.3719 42.7704 42.4524 42.965C42.533 43.1595 42.5541 43.3735 42.513 43.58C42.4719 43.7865 42.3706 43.9762 42.2217 44.1251C42.0728 44.274 41.8831 44.3754 41.6766 44.4165C41.4701 44.4575 41.256 44.4365 41.0615 44.3559C40.867 44.2753 40.7007 44.1389 40.5837 43.9638C40.4668 43.7887 40.4043 43.5829 40.4043 43.3723C40.4043 43.09 40.5165 42.8192 40.7161 42.6196C40.9158 42.4199 41.1866 42.3078 41.4689 42.3078ZM41.4689 41.4561C41.0899 41.4561 40.7194 41.5685 40.4043 41.7791C40.0892 41.9896 39.8436 42.2889 39.6985 42.639C39.5535 42.9892 39.5156 43.3745 39.5895 43.7462C39.6634 44.1179 39.8459 44.4593 40.1139 44.7273C40.3819 44.9953 40.7234 45.1778 41.0951 45.2518C41.4668 45.3257 41.8521 45.2877 42.2022 45.1427C42.5524 44.9977 42.8516 44.7521 43.0622 44.4369C43.2728 44.1218 43.3851 43.7513 43.3851 43.3723C43.3851 42.8641 43.1832 42.3767 42.8239 42.0174C42.4645 41.658 41.9771 41.4561 41.4689 41.4561Z" fill="#332922"/>
<path d="M125.298 39.4037C126.121 39.4037 126.788 38.7364 126.788 37.9133C126.788 37.0902 126.121 36.4229 125.298 36.4229C124.475 36.4229 123.807 37.0902 123.807 37.9133C123.807 38.7364 124.475 39.4037 125.298 39.4037Z" fill="white"/>
<path d="M125.298 36.8487C125.508 36.8487 125.714 36.9112 125.889 37.0281C126.064 37.1451 126.201 37.3114 126.281 37.5059C126.362 37.7004 126.383 37.9145 126.342 38.121C126.301 38.3275 126.199 38.5172 126.05 38.6661C125.902 38.8149 125.712 38.9163 125.505 38.9574C125.299 38.9985 125.085 38.9774 124.89 38.8968C124.696 38.8163 124.529 38.6798 124.412 38.5047C124.295 38.3297 124.233 38.1239 124.233 37.9133C124.233 37.631 124.345 37.3602 124.545 37.1605C124.745 36.9609 125.015 36.8487 125.298 36.8487ZM125.298 35.9971C124.919 35.9971 124.548 36.1095 124.233 36.32C123.918 36.5306 123.672 36.8298 123.527 37.18C123.382 37.5301 123.344 37.9154 123.418 38.2871C123.492 38.6588 123.675 39.0003 123.943 39.2683C124.211 39.5363 124.552 39.7188 124.924 39.7927C125.296 39.8666 125.681 39.8287 126.031 39.6837C126.381 39.5386 126.68 39.293 126.891 38.9779C127.101 38.6628 127.214 38.2923 127.214 37.9133C127.214 37.4051 127.012 36.9177 126.653 36.5583C126.293 36.199 125.806 35.9971 125.298 35.9971Z" fill="#332922"/>
<path d="M129.13 39.4037C129.953 39.4037 130.621 38.7364 130.621 37.9133C130.621 37.0902 129.953 36.4229 129.13 36.4229C128.307 36.4229 127.64 37.0902 127.64 37.9133C127.64 38.7364 128.307 39.4037 129.13 39.4037Z" fill="white"/>
<path d="M129.13 36.8487C129.341 36.8487 129.546 36.9112 129.722 37.0281C129.897 37.1451 130.033 37.3114 130.114 37.5059C130.194 37.7004 130.215 37.9145 130.174 38.121C130.133 38.3275 130.032 38.5172 129.883 38.6661C129.734 38.8149 129.544 38.9163 129.338 38.9574C129.131 38.9985 128.917 38.9774 128.723 38.8968C128.528 38.8163 128.362 38.6798 128.245 38.5047C128.128 38.3297 128.066 38.1239 128.066 37.9133C128.066 37.631 128.178 37.3602 128.377 37.1605C128.577 36.9609 128.848 36.8487 129.13 36.8487ZM129.13 35.9971C128.751 35.9971 128.381 36.1095 128.065 36.32C127.75 36.5306 127.505 36.8298 127.36 37.18C127.215 37.5301 127.177 37.9154 127.251 38.2871C127.325 38.6588 127.507 39.0003 127.775 39.2683C128.043 39.5363 128.385 39.7188 128.756 39.7927C129.128 39.8666 129.513 39.8287 129.863 39.6837C130.214 39.5386 130.513 39.293 130.723 38.9779C130.934 38.6628 131.046 38.2923 131.046 37.9133C131.046 37.4051 130.844 36.9177 130.485 36.5583C130.126 36.199 129.638 35.9971 129.13 35.9971Z" fill="#332922"/>
<path d="M125.298 43.2361C126.121 43.2361 126.788 42.5688 126.788 41.7457C126.788 40.9226 126.121 40.2553 125.298 40.2553C124.475 40.2553 123.807 40.9226 123.807 41.7457C123.807 42.5688 124.475 43.2361 125.298 43.2361Z" fill="white"/>
<path d="M125.298 40.6812C125.508 40.6812 125.714 40.7436 125.889 40.8606C126.064 40.9776 126.201 41.1438 126.281 41.3384C126.362 41.5329 126.383 41.7469 126.342 41.9534C126.301 42.16 126.199 42.3496 126.05 42.4985C125.902 42.6474 125.712 42.7488 125.505 42.7899C125.299 42.831 125.085 42.8099 124.89 42.7293C124.696 42.6487 124.529 42.5123 124.412 42.3372C124.295 42.1621 124.233 41.9563 124.233 41.7458C124.233 41.4634 124.345 41.1926 124.545 40.993C124.745 40.7933 125.015 40.6812 125.298 40.6812ZM125.298 39.8295C124.919 39.8295 124.548 39.9419 124.233 40.1525C123.918 40.363 123.672 40.6623 123.527 41.0124C123.382 41.3626 123.344 41.7479 123.418 42.1196C123.492 42.4913 123.675 42.8327 123.943 43.1007C124.211 43.3687 124.552 43.5512 124.924 43.6252C125.296 43.6991 125.681 43.6612 126.031 43.5161C126.381 43.3711 126.68 43.1255 126.891 42.8104C127.101 42.4952 127.214 42.1248 127.214 41.7458C127.214 41.2375 127.012 40.7501 126.653 40.3908C126.293 40.0314 125.806 39.8295 125.298 39.8295Z" fill="#332922"/>
<path d="M129.13 43.2361C129.953 43.2361 130.621 42.5688 130.621 41.7457C130.621 40.9226 129.953 40.2553 129.13 40.2553C128.307 40.2553 127.64 40.9226 127.64 41.7457C127.64 42.5688 128.307 43.2361 129.13 43.2361Z" fill="white"/>
<path d="M129.13 40.6812C129.341 40.6812 129.546 40.7436 129.722 40.8606C129.897 40.9776 130.033 41.1438 130.114 41.3384C130.194 41.5329 130.215 41.7469 130.174 41.9534C130.133 42.16 130.032 42.3496 129.883 42.4985C129.734 42.6474 129.544 42.7488 129.338 42.7899C129.131 42.831 128.917 42.8099 128.723 42.7293C128.528 42.6487 128.362 42.5123 128.245 42.3372C128.128 42.1621 128.066 41.9563 128.066 41.7458C128.066 41.4634 128.178 41.1926 128.377 40.993C128.577 40.7933 128.848 40.6812 129.13 40.6812ZM129.13 39.8295C128.751 39.8295 128.381 39.9419 128.065 40.1525C127.75 40.363 127.505 40.6623 127.36 41.0124C127.215 41.3626 127.177 41.7479 127.251 42.1196C127.325 42.4913 127.507 42.8327 127.775 43.1007C128.043 43.3687 128.385 43.5512 128.756 43.6252C129.128 43.6991 129.513 43.6612 129.863 43.5161C130.214 43.3711 130.513 43.1255 130.723 42.8104C130.934 42.4952 131.046 42.1248 131.046 41.7458C131.046 41.2375 130.844 40.7501 130.485 40.3908C130.126 40.0314 129.638 39.8295 129.13 39.8295Z" fill="#332922"/>
<path d="M96.1241 80.3302C96.9472 80.3302 97.6145 79.6629 97.6145 78.8398C97.6145 78.0166 96.9472 77.3494 96.1241 77.3494C95.3009 77.3494 94.6337 78.0166 94.6337 78.8398C94.6337 79.6629 95.3009 80.3302 96.1241 80.3302Z" fill="white"/>
<path d="M96.122 77.7858C96.3325 77.7858 96.5384 77.8482 96.7134 77.9652C96.8885 78.0822 97.0249 78.2485 97.1055 78.443C97.1861 78.6375 97.2072 78.8516 97.1661 79.0581C97.125 79.2646 97.0236 79.4543 96.8748 79.6031C96.7259 79.752 96.5362 79.8534 96.3297 79.8945C96.1232 79.9356 95.9091 79.9145 95.7146 79.8339C95.5201 79.7533 95.3538 79.6169 95.2368 79.4418C95.1198 79.2668 95.0574 79.0609 95.0574 78.8504C95.0574 78.568 95.1696 78.2973 95.3692 78.0976C95.5689 77.898 95.8396 77.7858 96.122 77.7858ZM96.122 76.9341C95.743 76.9341 95.3725 77.0465 95.0574 77.2571C94.7423 77.4676 94.4966 77.7669 94.3516 78.1171C94.2066 78.4672 94.1686 78.8525 94.2426 79.2242C94.3165 79.5959 94.499 79.9374 94.767 80.2054C95.035 80.4733 95.3764 80.6558 95.7481 80.7298C96.1199 80.8037 96.5051 80.7658 96.8553 80.6207C97.2054 80.4757 97.5047 80.2301 97.7153 79.915C97.9258 79.5999 98.0382 79.2294 98.0382 78.8504C98.0382 78.3422 97.8363 77.8548 97.477 77.4954C97.1176 77.136 96.6302 76.9341 96.122 76.9341Z" fill="#332922"/>
<path d="M99.9566 80.3302C100.78 80.3302 101.447 79.6629 101.447 78.8398C101.447 78.0166 100.78 77.3494 99.9566 77.3494C99.1335 77.3494 98.4662 78.0166 98.4662 78.8398C98.4662 79.6629 99.1335 80.3302 99.9566 80.3302Z" fill="white"/>
<path d="M99.9544 77.7858C100.165 77.7858 100.371 77.8482 100.546 77.9652C100.721 78.0822 100.857 78.2485 100.938 78.443C101.019 78.6375 101.04 78.8516 100.999 79.0581C100.957 79.2646 100.856 79.4543 100.707 79.6031C100.558 79.752 100.369 79.8534 100.162 79.8945C99.9556 79.9356 99.7416 79.9145 99.547 79.8339C99.3525 79.7533 99.1863 79.6169 99.0693 79.4418C98.9523 79.2668 98.8899 79.0609 98.8899 78.8504C98.8899 78.568 99.002 78.2973 99.2017 78.0976C99.4013 77.898 99.6721 77.7858 99.9544 77.7858ZM99.9544 76.9341C99.5754 76.9341 99.205 77.0465 98.8898 77.2571C98.5747 77.4676 98.3291 77.7669 98.1841 78.1171C98.039 78.4672 98.0011 78.8525 98.075 79.2242C98.149 79.5959 98.3315 79.9374 98.5995 80.2054C98.8674 80.4733 99.2089 80.6558 99.5806 80.7298C99.9523 80.8037 100.338 80.7658 100.688 80.6207C101.038 80.4757 101.337 80.2301 101.548 79.915C101.758 79.5999 101.871 79.2294 101.871 78.8504C101.871 78.3422 101.669 77.8548 101.309 77.4954C100.95 77.136 100.463 76.9341 99.9544 76.9341Z" fill="#332922"/>
<path d="M96.1241 84.1625C96.9472 84.1625 97.6145 83.4952 97.6145 82.6721C97.6145 81.849 96.9472 81.1817 96.1241 81.1817C95.3009 81.1817 94.6337 81.849 94.6337 82.6721C94.6337 83.4952 95.3009 84.1625 96.1241 84.1625Z" fill="white"/>
<path d="M96.122 81.6183C96.3325 81.6183 96.5384 81.6807 96.7134 81.7977C96.8885 81.9146 97.0249 82.0809 97.1055 82.2754C97.1861 82.47 97.2072 82.684 97.1661 82.8905C97.125 83.097 97.0236 83.2867 96.8748 83.4356C96.7259 83.5845 96.5362 83.6859 96.3297 83.727C96.1232 83.768 95.9091 83.7469 95.7146 83.6664C95.5201 83.5858 95.3538 83.4493 95.2368 83.2743C95.1198 83.0992 95.0574 82.8934 95.0574 82.6828C95.0574 82.4005 95.1696 82.1297 95.3692 81.9301C95.5689 81.7304 95.8396 81.6183 96.122 81.6183ZM96.122 80.7666C95.743 80.7666 95.3725 80.879 95.0574 81.0895C94.7423 81.3001 94.4966 81.5994 94.3516 81.9495C94.2066 82.2997 94.1686 82.685 94.2426 83.0567C94.3165 83.4284 94.499 83.7698 94.767 84.0378C95.035 84.3058 95.3764 84.4883 95.7481 84.5622C96.1199 84.6362 96.5051 84.5982 96.8553 84.4532C97.2054 84.3082 97.5047 84.0626 97.7153 83.7474C97.9258 83.4323 98.0382 83.0618 98.0382 82.6828C98.0382 82.1746 97.8363 81.6872 97.477 81.3279C97.1176 80.9685 96.6302 80.7666 96.122 80.7666Z" fill="#332922"/>
<path d="M99.9566 84.1625C100.78 84.1625 101.447 83.4952 101.447 82.6721C101.447 81.849 100.78 81.1817 99.9566 81.1817C99.1335 81.1817 98.4662 81.849 98.4662 82.6721C98.4662 83.4952 99.1335 84.1625 99.9566 84.1625Z" fill="white"/>
<path d="M99.9544 81.6183C100.165 81.6183 100.371 81.6807 100.546 81.7977C100.721 81.9146 100.857 82.0809 100.938 82.2754C101.019 82.47 101.04 82.684 100.999 82.8905C100.957 83.097 100.856 83.2867 100.707 83.4356C100.558 83.5845 100.369 83.6859 100.162 83.727C99.9556 83.768 99.7416 83.7469 99.547 83.6664C99.3525 83.5858 99.1863 83.4493 99.0693 83.2743C98.9523 83.0992 98.8899 82.8934 98.8899 82.6828C98.8899 82.4005 99.002 82.1297 99.2017 81.9301C99.4013 81.7304 99.6721 81.6183 99.9544 81.6183ZM99.9544 80.7666C99.5754 80.7666 99.205 80.879 98.8898 81.0895C98.5747 81.3001 98.3291 81.5994 98.1841 81.9495C98.039 82.2997 98.0011 82.685 98.075 83.0567C98.149 83.4284 98.3315 83.7698 98.5995 84.0378C98.8674 84.3058 99.2089 84.4883 99.5806 84.5622C99.9523 84.6362 100.338 84.5982 100.688 84.4532C101.038 84.3082 101.337 84.0626 101.548 83.7474C101.758 83.4323 101.871 83.0618 101.871 82.6828C101.871 82.1746 101.669 81.6872 101.309 81.3279C100.95 80.9685 100.463 80.7666 99.9544 80.7666Z" fill="#332922"/>
<path d="M86.2257 83.1001C87.0488 83.1001 87.7161 82.4329 87.7161 81.6097C87.7161 80.7866 87.0488 80.1193 86.2257 80.1193C85.4025 80.1193 84.7353 80.7866 84.7353 81.6097C84.7353 82.4329 85.4025 83.1001 86.2257 83.1001Z" fill="white"/>
<path d="M86.2257 80.5536C86.4362 80.5536 86.6421 80.6161 86.8171 80.733C86.9922 80.85 87.1286 81.0163 87.2092 81.2108C87.2898 81.4053 87.3109 81.6194 87.2698 81.8259C87.2287 82.0324 87.1273 82.2221 86.9784 82.371C86.8296 82.5198 86.6399 82.6212 86.4334 82.6623C86.2269 82.7034 86.0128 82.6823 85.8183 82.6017C85.6238 82.5212 85.4575 82.3847 85.3405 82.2096C85.2235 82.0346 85.1611 81.8287 85.1611 81.6182C85.1611 81.3359 85.2733 81.0651 85.4729 80.8654C85.6726 80.6658 85.9433 80.5536 86.2257 80.5536ZM86.2257 79.702C85.8467 79.702 85.4762 79.8144 85.1611 80.0249C84.846 80.2355 84.6004 80.5347 84.4553 80.8849C84.3103 81.235 84.2723 81.6203 84.3463 81.992C84.4202 82.3637 84.6027 82.7052 84.8707 82.9732C85.1387 83.2412 85.4801 83.4237 85.8518 83.4976C86.2236 83.5715 86.6088 83.5336 86.959 83.3886C87.3091 83.2435 87.6084 82.9979 87.819 82.6828C88.0295 82.3677 88.1419 81.9972 88.1419 81.6182C88.1419 81.11 87.94 80.6226 87.5807 80.2632C87.2213 79.9039 86.7339 79.702 86.2257 79.702Z" fill="#332922"/>
<path d="M90.0582 83.1001C90.8813 83.1001 91.5486 82.4329 91.5486 81.6097C91.5486 80.7866 90.8813 80.1193 90.0582 80.1193C89.235 80.1193 88.5677 80.7866 88.5677 81.6097C88.5677 82.4329 89.235 83.1001 90.0582 83.1001Z" fill="white"/>
<path d="M90.0582 80.5536C90.2688 80.5536 90.4746 80.6161 90.6496 80.733C90.8247 80.85 90.9612 81.0163 91.0417 81.2108C91.1223 81.4053 91.1434 81.6194 91.1023 81.8259C91.0612 82.0324 90.9598 82.2221 90.811 82.371C90.6621 82.5198 90.4724 82.6212 90.2659 82.6623C90.0594 82.7034 89.8453 82.6823 89.6508 82.6017C89.4563 82.5212 89.29 82.3847 89.173 82.2096C89.0561 82.0346 88.9936 81.8287 88.9936 81.6182C88.9936 81.3359 89.1058 81.0651 89.3054 80.8654C89.5051 80.6658 89.7759 80.5536 90.0582 80.5536ZM90.0582 79.702C89.6792 79.702 89.3087 79.8144 88.9936 80.0249C88.6785 80.2355 88.4329 80.5347 88.2878 80.8849C88.1428 81.235 88.1048 81.6203 88.1788 81.992C88.2527 82.3637 88.4352 82.7052 88.7032 82.9732C88.9712 83.2412 89.3126 83.4237 89.6844 83.4976C90.0561 83.5715 90.4414 83.5336 90.7915 83.3886C91.1417 83.2435 91.4409 82.9979 91.6515 82.6828C91.862 82.3677 91.9744 81.9972 91.9744 81.6182C91.9744 81.11 91.7725 80.6226 91.4132 80.2632C91.0538 79.9039 90.5664 79.702 90.0582 79.702Z" fill="#332922"/>
<path d="M86.2257 86.9326C87.0488 86.9326 87.7161 86.2654 87.7161 85.4422C87.7161 84.6191 87.0488 83.9518 86.2257 83.9518C85.4025 83.9518 84.7353 84.6191 84.7353 85.4422C84.7353 86.2654 85.4025 86.9326 86.2257 86.9326Z" fill="white"/>
<path d="M86.2257 84.3861C86.4362 84.3861 86.6421 84.4486 86.8171 84.5656C86.9922 84.6825 87.1286 84.8488 87.2092 85.0433C87.2898 85.2378 87.3109 85.4519 87.2698 85.6584C87.2287 85.8649 87.1273 86.0546 86.9784 86.2035C86.8296 86.3524 86.6399 86.4538 86.4334 86.4948C86.2269 86.5359 86.0128 86.5148 85.8183 86.4342C85.6238 86.3537 85.4575 86.2172 85.3405 86.0422C85.2235 85.8671 85.1611 85.6613 85.1611 85.4507C85.1611 85.1684 85.2733 84.8976 85.4729 84.698C85.6726 84.4983 85.9433 84.3861 86.2257 84.3861ZM86.2257 83.5345C85.8467 83.5345 85.4762 83.6469 85.1611 83.8574C84.846 84.068 84.6004 84.3673 84.4553 84.7174C84.3103 85.0676 84.2723 85.4528 84.3463 85.8246C84.4202 86.1963 84.6027 86.5377 84.8707 86.8057C85.1387 87.0737 85.4801 87.2562 85.8518 87.3301C86.2236 87.4041 86.6088 87.3661 86.959 87.2211C87.3091 87.076 87.6084 86.8304 87.819 86.5153C88.0295 86.2002 88.1419 85.8297 88.1419 85.4507C88.1419 84.9425 87.94 84.4551 87.5807 84.0957C87.2213 83.7364 86.7339 83.5345 86.2257 83.5345Z" fill="#332922"/>
<path d="M90.0582 86.9326C90.8813 86.9326 91.5486 86.2654 91.5486 85.4422C91.5486 84.6191 90.8813 83.9518 90.0582 83.9518C89.235 83.9518 88.5677 84.6191 88.5677 85.4422C88.5677 86.2654 89.235 86.9326 90.0582 86.9326Z" fill="white"/>
<path d="M90.0582 84.3861C90.2688 84.3861 90.4746 84.4486 90.6496 84.5656C90.8247 84.6825 90.9612 84.8488 91.0417 85.0433C91.1223 85.2378 91.1434 85.4519 91.1023 85.6584C91.0612 85.8649 90.9598 86.0546 90.811 86.2035C90.6621 86.3524 90.4724 86.4538 90.2659 86.4948C90.0594 86.5359 89.8453 86.5148 89.6508 86.4342C89.4563 86.3537 89.29 86.2172 89.173 86.0422C89.0561 85.8671 88.9936 85.6613 88.9936 85.4507C88.9936 85.1684 89.1058 84.8976 89.3054 84.698C89.5051 84.4983 89.7759 84.3861 90.0582 84.3861ZM90.0582 83.5345C89.6792 83.5345 89.3087 83.6469 88.9936 83.8574C88.6785 84.068 88.4329 84.3673 88.2878 84.7174C88.1428 85.0676 88.1048 85.4528 88.1788 85.8246C88.2527 86.1963 88.4352 86.5377 88.7032 86.8057C88.9712 87.0737 89.3126 87.2562 89.6844 87.3301C90.0561 87.4041 90.4414 87.3661 90.7915 87.2211C91.1417 87.076 91.4409 86.8304 91.6515 86.5153C91.862 86.2002 91.9744 85.8297 91.9744 85.4507C91.9744 84.9425 91.7725 84.4551 91.4132 84.0957C91.0538 83.7364 90.5664 83.5345 90.0582 83.5345Z" fill="#332922"/>
<path d="M106.776 124.12C107.599 124.12 108.267 123.453 108.267 122.63C108.267 121.807 107.599 121.139 106.776 121.139C105.953 121.139 105.286 121.807 105.286 122.63C105.286 123.453 105.953 124.12 106.776 124.12Z" fill="white"/>
<path d="M106.776 121.565C106.987 121.565 107.193 121.628 107.368 121.745C107.543 121.862 107.679 122.028 107.76 122.222C107.84 122.417 107.861 122.631 107.82 122.837C107.779 123.044 107.678 123.234 107.529 123.383C107.38 123.531 107.19 123.633 106.984 123.674C106.777 123.715 106.563 123.694 106.369 123.613C106.174 123.533 106.008 123.396 105.891 123.221C105.774 123.046 105.712 122.84 105.712 122.63C105.712 122.347 105.824 122.077 106.023 121.877C106.223 121.677 106.494 121.565 106.776 121.565ZM106.776 120.714C106.397 120.714 106.027 120.826 105.712 121.037C105.396 121.247 105.151 121.546 105.006 121.896C104.861 122.247 104.823 122.632 104.897 123.004C104.971 123.375 105.153 123.717 105.421 123.985C105.689 124.253 106.031 124.435 106.402 124.509C106.774 124.583 107.159 124.545 107.51 124.4C107.86 124.255 108.159 124.01 108.37 123.694C108.58 123.379 108.692 123.009 108.692 122.63C108.692 122.122 108.491 121.634 108.131 121.275C107.772 120.915 107.284 120.714 106.776 120.714Z" fill="#332922"/>
<path d="M110.609 124.12C111.432 124.12 112.099 123.453 112.099 122.63C112.099 121.807 111.432 121.139 110.609 121.139C109.786 121.139 109.118 121.807 109.118 122.63C109.118 123.453 109.786 124.12 110.609 124.12Z" fill="white"/>
<path d="M110.609 121.565C110.819 121.565 111.025 121.628 111.2 121.745C111.375 121.862 111.512 122.028 111.592 122.222C111.673 122.417 111.694 122.631 111.653 122.837C111.612 123.044 111.51 123.234 111.361 123.383C111.212 123.531 111.023 123.633 110.816 123.674C110.61 123.715 110.396 123.694 110.201 123.613C110.007 123.533 109.84 123.396 109.723 123.221C109.606 123.046 109.544 122.84 109.544 122.63C109.544 122.347 109.656 122.077 109.856 121.877C110.056 121.677 110.326 121.565 110.609 121.565ZM110.609 120.714C110.23 120.714 109.859 120.826 109.544 121.037C109.229 121.247 108.983 121.546 108.838 121.896C108.693 122.247 108.655 122.632 108.729 123.004C108.803 123.375 108.986 123.717 109.254 123.985C109.522 124.253 109.863 124.435 110.235 124.509C110.606 124.583 110.992 124.545 111.342 124.4C111.692 124.255 111.991 124.01 112.202 123.694C112.412 123.379 112.525 123.009 112.525 122.63C112.525 122.122 112.323 121.634 111.964 121.275C111.604 120.915 111.117 120.714 110.609 120.714Z" fill="#332922"/>
<path d="M106.776 127.953C107.599 127.953 108.267 127.285 108.267 126.462C108.267 125.639 107.599 124.972 106.776 124.972C105.953 124.972 105.286 125.639 105.286 126.462C105.286 127.285 105.953 127.953 106.776 127.953Z" fill="white"/>
<path d="M106.776 125.398C106.987 125.398 107.193 125.46 107.368 125.577C107.543 125.694 107.679 125.86 107.76 126.055C107.84 126.249 107.861 126.463 107.82 126.67C107.779 126.877 107.678 127.066 107.529 127.215C107.38 127.364 107.19 127.465 106.984 127.506C106.777 127.548 106.563 127.526 106.369 127.446C106.174 127.365 106.008 127.229 105.891 127.054C105.774 126.879 105.712 126.673 105.712 126.462C105.712 126.18 105.824 125.909 106.023 125.71C106.223 125.51 106.494 125.398 106.776 125.398ZM106.776 124.546C106.397 124.546 106.027 124.658 105.712 124.869C105.396 125.08 105.151 125.379 105.006 125.729C104.861 126.079 104.823 126.464 104.897 126.836C104.971 127.208 105.153 127.549 105.421 127.817C105.689 128.085 106.031 128.268 106.402 128.342C106.774 128.416 107.159 128.378 107.51 128.233C107.86 128.088 108.159 127.842 108.37 127.527C108.58 127.212 108.692 126.841 108.692 126.462C108.692 125.954 108.491 125.467 108.131 125.107C107.772 124.748 107.284 124.546 106.776 124.546Z" fill="#332922"/>
<path d="M110.609 127.953C111.432 127.953 112.099 127.285 112.099 126.462C112.099 125.639 111.432 124.972 110.609 124.972C109.786 124.972 109.118 125.639 109.118 126.462C109.118 127.285 109.786 127.953 110.609 127.953Z" fill="white"/>
<path d="M110.609 125.398C110.819 125.398 111.025 125.46 111.2 125.577C111.375 125.694 111.512 125.86 111.592 126.055C111.673 126.249 111.694 126.463 111.653 126.67C111.612 126.877 111.51 127.066 111.361 127.215C111.212 127.364 111.023 127.465 110.816 127.506C110.61 127.548 110.396 127.526 110.201 127.446C110.007 127.365 109.84 127.229 109.723 127.054C109.606 126.879 109.544 126.673 109.544 126.462C109.544 126.18 109.656 125.909 109.856 125.71C110.056 125.51 110.326 125.398 110.609 125.398ZM110.609 124.546C110.23 124.546 109.859 124.658 109.544 124.869C109.229 125.08 108.983 125.379 108.838 125.729C108.693 126.079 108.655 126.464 108.729 126.836C108.803 127.208 108.986 127.549 109.254 127.817C109.522 128.085 109.863 128.268 110.235 128.342C110.606 128.416 110.992 128.378 111.342 128.233C111.692 128.088 111.991 127.842 112.202 127.527C112.412 127.212 112.525 126.841 112.525 126.462C112.525 125.954 112.323 125.467 111.964 125.107C111.604 124.748 111.117 124.546 110.609 124.546Z" fill="#332922"/>
<path d="M91.2015 157.348C92.0246 157.348 92.6919 156.68 92.6919 155.857C92.6919 155.034 92.0246 154.367 91.2015 154.367C90.3784 154.367 89.7111 155.034 89.7111 155.857C89.7111 156.68 90.3784 157.348 91.2015 157.348Z" fill="white"/>
<path d="M91.2014 154.791C91.412 154.791 91.6178 154.853 91.7929 154.97C91.968 155.087 92.1044 155.253 92.185 155.448C92.2656 155.642 92.2866 155.856 92.2456 156.063C92.2045 156.269 92.1031 156.459 91.9542 156.608C91.8053 156.757 91.6156 156.858 91.4091 156.899C91.2026 156.94 90.9886 156.919 90.7941 156.839C90.5995 156.758 90.4333 156.622 90.3163 156.447C90.1993 156.272 90.1369 156.066 90.1369 155.855C90.1369 155.573 90.249 155.302 90.4487 155.102C90.6483 154.903 90.9191 154.791 91.2014 154.791ZM91.2014 153.939C90.8225 153.939 90.452 154.051 90.1368 154.262C89.8217 154.472 89.5761 154.772 89.4311 155.122C89.286 155.472 89.2481 155.857 89.322 156.229C89.396 156.601 89.5785 156.942 89.8465 157.21C90.1145 157.478 90.4559 157.661 90.8276 157.735C91.1993 157.809 91.5846 157.771 91.9348 157.626C92.2849 157.481 92.5842 157.235 92.7947 156.92C93.0053 156.605 93.1177 156.234 93.1177 155.855C93.1177 155.347 92.9158 154.86 92.5564 154.5C92.1971 154.141 91.7097 153.939 91.2014 153.939Z" fill="#332922"/>
<path d="M95.034 157.348C95.8571 157.348 96.5244 156.68 96.5244 155.857C96.5244 155.034 95.8571 154.367 95.034 154.367C94.2109 154.367 93.5436 155.034 93.5436 155.857C93.5436 156.68 94.2109 157.348 95.034 157.348Z" fill="white"/>
<path d="M95.034 154.791C95.2446 154.791 95.4504 154.853 95.6255 154.97C95.8005 155.087 95.937 155.253 96.0176 155.448C96.0981 155.642 96.1192 155.856 96.0781 156.063C96.0371 156.269 95.9357 156.459 95.7868 156.608C95.6379 156.757 95.4482 156.858 95.2417 156.899C95.0352 156.94 94.8212 156.919 94.6266 156.839C94.4321 156.758 94.2658 156.622 94.1489 156.447C94.0319 156.272 93.9695 156.066 93.9695 155.855C93.9695 155.573 94.0816 155.302 94.2813 155.102C94.4809 154.903 94.7517 154.791 95.034 154.791ZM95.034 153.939C94.655 153.939 94.2846 154.051 93.9694 154.262C93.6543 154.472 93.4087 154.772 93.2637 155.122C93.1186 155.472 93.0807 155.857 93.1546 156.229C93.2286 156.601 93.4111 156.942 93.679 157.21C93.947 157.478 94.2885 157.661 94.6602 157.735C95.0319 157.809 95.4172 157.771 95.7673 157.626C96.1175 157.481 96.4168 157.235 96.6273 156.92C96.8379 156.605 96.9503 156.234 96.9503 155.855C96.9503 155.347 96.7484 154.86 96.389 154.5C96.0296 154.141 95.5422 153.939 95.034 153.939Z" fill="#332922"/>
<path d="M91.2015 161.18C92.0246 161.18 92.6919 160.513 92.6919 159.69C92.6919 158.867 92.0246 158.199 91.2015 158.199C90.3784 158.199 89.7111 158.867 89.7111 159.69C89.7111 160.513 90.3784 161.18 91.2015 161.18Z" fill="white"/>
<path d="M91.2014 158.623C91.412 158.623 91.6178 158.685 91.7929 158.802C91.968 158.919 92.1044 159.086 92.185 159.28C92.2656 159.475 92.2866 159.689 92.2456 159.895C92.2045 160.102 92.1031 160.291 91.9542 160.44C91.8053 160.589 91.6156 160.691 91.4091 160.732C91.2026 160.773 90.9886 160.752 90.7941 160.671C90.5995 160.591 90.4333 160.454 90.3163 160.279C90.1993 160.104 90.1369 159.898 90.1369 159.688C90.1369 159.405 90.249 159.134 90.4487 158.935C90.6483 158.735 90.9191 158.623 91.2014 158.623ZM91.2014 157.771C90.8225 157.771 90.452 157.884 90.1368 158.094C89.8217 158.305 89.5761 158.604 89.4311 158.954C89.286 159.304 89.2481 159.69 89.322 160.061C89.396 160.433 89.5785 160.775 89.8465 161.043C90.1145 161.311 90.4559 161.493 90.8276 161.567C91.1993 161.641 91.5846 161.603 91.9348 161.458C92.2849 161.313 92.5842 161.067 92.7947 160.752C93.0053 160.437 93.1177 160.067 93.1177 159.688C93.1177 159.179 92.9158 158.692 92.5564 158.333C92.1971 157.973 91.7097 157.771 91.2014 157.771Z" fill="#332922"/>
<path d="M95.034 161.18C95.8571 161.18 96.5244 160.513 96.5244 159.69C96.5244 158.867 95.8571 158.199 95.034 158.199C94.2109 158.199 93.5436 158.867 93.5436 159.69C93.5436 160.513 94.2109 161.18 95.034 161.18Z" fill="white"/>
<path d="M95.034 158.623C95.2446 158.623 95.4504 158.685 95.6255 158.802C95.8005 158.919 95.937 159.086 96.0176 159.28C96.0981 159.475 96.1192 159.689 96.0781 159.895C96.0371 160.102 95.9357 160.291 95.7868 160.44C95.6379 160.589 95.4482 160.691 95.2417 160.732C95.0352 160.773 94.8212 160.752 94.6266 160.671C94.4321 160.591 94.2658 160.454 94.1489 160.279C94.0319 160.104 93.9695 159.898 93.9695 159.688C93.9695 159.405 94.0816 159.134 94.2813 158.935C94.4809 158.735 94.7517 158.623 95.034 158.623ZM95.034 157.771C94.655 157.771 94.2846 157.884 93.9694 158.094C93.6543 158.305 93.4087 158.604 93.2637 158.954C93.1186 159.304 93.0807 159.69 93.1546 160.061C93.2286 160.433 93.4111 160.775 93.679 161.043C93.947 161.311 94.2885 161.493 94.6602 161.567C95.0319 161.641 95.4172 161.603 95.7673 161.458C96.1175 161.313 96.4168 161.067 96.6273 160.752C96.8379 160.437 96.9503 160.067 96.9503 159.688C96.9503 159.179 96.7484 158.692 96.389 158.333C96.0296 157.973 95.5422 157.771 95.034 157.771Z" fill="#332922"/>
<path d="M37.6365 157.348C38.4596 157.348 39.1269 156.68 39.1269 155.857C39.1269 155.034 38.4596 154.367 37.6365 154.367C36.8133 154.367 36.1461 155.034 36.1461 155.857C36.1461 156.68 36.8133 157.348 37.6365 157.348Z" fill="white"/>
<path d="M37.6364 154.791C37.847 154.791 38.0528 154.853 38.2279 154.97C38.403 155.087 38.5394 155.253 38.62 155.448C38.7006 155.642 38.7216 155.856 38.6806 156.063C38.6395 156.269 38.5381 156.459 38.3892 156.608C38.2403 156.757 38.0506 156.858 37.8441 156.899C37.6376 156.94 37.4236 156.919 37.2291 156.839C37.0345 156.758 36.8683 156.622 36.7513 156.447C36.6343 156.272 36.5719 156.066 36.5719 155.855C36.5719 155.573 36.684 155.302 36.8837 155.102C37.0833 154.903 37.3541 154.791 37.6364 154.791ZM37.6364 153.939C37.2575 153.939 36.887 154.051 36.5718 154.262C36.2567 154.472 36.0111 154.772 35.8661 155.122C35.721 155.472 35.6831 155.857 35.757 156.229C35.831 156.601 36.0135 156.942 36.2815 157.21C36.5495 157.478 36.8909 157.661 37.2626 157.735C37.6343 157.809 38.0196 157.771 38.3698 157.626C38.7199 157.481 39.0192 157.235 39.2297 156.92C39.4403 156.605 39.5527 156.234 39.5527 155.855C39.5527 155.347 39.3508 154.86 38.9914 154.5C38.6321 154.141 38.1447 153.939 37.6364 153.939Z" fill="#332922"/>
<path d="M41.4689 157.348C42.292 157.348 42.9593 156.68 42.9593 155.857C42.9593 155.034 42.292 154.367 41.4689 154.367C40.6458 154.367 39.9785 155.034 39.9785 155.857C39.9785 156.68 40.6458 157.348 41.4689 157.348Z" fill="white"/>
<path d="M41.4689 154.791C41.6795 154.791 41.8853 154.853 42.0603 154.97C42.2354 155.087 42.3719 155.253 42.4524 155.448C42.533 155.642 42.5541 155.856 42.513 156.063C42.4719 156.269 42.3706 156.459 42.2217 156.608C42.0728 156.757 41.8831 156.858 41.6766 156.899C41.4701 156.94 41.256 156.919 41.0615 156.839C40.867 156.758 40.7007 156.622 40.5837 156.447C40.4668 156.272 40.4043 156.066 40.4043 155.855C40.4043 155.573 40.5165 155.302 40.7161 155.102C40.9158 154.903 41.1866 154.791 41.4689 154.791ZM41.4689 153.939C41.0899 153.939 40.7194 154.051 40.4043 154.262C40.0892 154.472 39.8436 154.772 39.6985 155.122C39.5535 155.472 39.5156 155.857 39.5895 156.229C39.6634 156.601 39.8459 156.942 40.1139 157.21C40.3819 157.478 40.7234 157.661 41.0951 157.735C41.4668 157.809 41.8521 157.771 42.2022 157.626C42.5524 157.481 42.8516 157.235 43.0622 156.92C43.2728 156.605 43.3851 156.234 43.3851 155.855C43.3851 155.347 43.1832 154.86 42.8239 154.5C42.4645 154.141 41.9771 153.939 41.4689 153.939Z" fill="#332922"/>
<path d="M37.6365 161.18C38.4596 161.18 39.1269 160.513 39.1269 159.69C39.1269 158.867 38.4596 158.199 37.6365 158.199C36.8133 158.199 36.1461 158.867 36.1461 159.69C36.1461 160.513 36.8133 161.18 37.6365 161.18Z" fill="white"/>
<path d="M37.6364 158.623C37.847 158.623 38.0528 158.685 38.2279 158.802C38.403 158.919 38.5394 159.086 38.62 159.28C38.7006 159.475 38.7216 159.689 38.6806 159.895C38.6395 160.102 38.5381 160.291 38.3892 160.44C38.2403 160.589 38.0506 160.691 37.8441 160.732C37.6376 160.773 37.4236 160.752 37.2291 160.671C37.0345 160.591 36.8683 160.454 36.7513 160.279C36.6343 160.104 36.5719 159.898 36.5719 159.688C36.5719 159.405 36.684 159.134 36.8837 158.935C37.0833 158.735 37.3541 158.623 37.6364 158.623ZM37.6364 157.771C37.2575 157.771 36.887 157.884 36.5718 158.094C36.2567 158.305 36.0111 158.604 35.8661 158.954C35.721 159.304 35.6831 159.69 35.757 160.061C35.831 160.433 36.0135 160.775 36.2815 161.043C36.5495 161.311 36.8909 161.493 37.2626 161.567C37.6343 161.641 38.0196 161.603 38.3698 161.458C38.7199 161.313 39.0192 161.067 39.2297 160.752C39.4403 160.437 39.5527 160.067 39.5527 159.688C39.5527 159.179 39.3508 158.692 38.9914 158.333C38.6321 157.973 38.1447 157.771 37.6364 157.771Z" fill="#332922"/>
<path d="M41.4689 161.18C42.292 161.18 42.9593 160.513 42.9593 159.69C42.9593 158.867 42.292 158.199 41.4689 158.199C40.6458 158.199 39.9785 158.867 39.9785 159.69C39.9785 160.513 40.6458 161.18 41.4689 161.18Z" fill="white"/>
<path d="M41.4689 158.623C41.6795 158.623 41.8853 158.685 42.0603 158.802C42.2354 158.919 42.3719 159.086 42.4524 159.28C42.533 159.475 42.5541 159.689 42.513 159.895C42.4719 160.102 42.3706 160.291 42.2217 160.44C42.0728 160.589 41.8831 160.691 41.6766 160.732C41.4701 160.773 41.256 160.752 41.0615 160.671C40.867 160.591 40.7007 160.454 40.5837 160.279C40.4668 160.104 40.4043 159.898 40.4043 159.688C40.4043 159.405 40.5165 159.134 40.7161 158.935C40.9158 158.735 41.1866 158.623 41.4689 158.623ZM41.4689 157.771C41.0899 157.771 40.7194 157.884 40.4043 158.094C40.0892 158.305 39.8436 158.604 39.6985 158.954C39.5535 159.304 39.5156 159.69 39.5895 160.061C39.6634 160.433 39.8459 160.775 40.1139 161.043C40.3819 161.311 40.7234 161.493 41.0951 161.567C41.4668 161.641 41.8521 161.603 42.2022 161.458C42.5524 161.313 42.8516 161.067 43.0622 160.752C43.2728 160.437 43.3851 160.067 43.3851 159.688C43.3851 159.179 43.1832 158.692 42.8239 158.333C42.4645 157.973 41.9771 157.771 41.4689 157.771Z" fill="#332922"/>
</g>
<defs>
<clipPath id="clip0_13_177">
<rect width="116.494" height="147.322" fill="white" transform="translate(25 25)"/>
</clipPath>
</defs>
</svg>
