<svg width="32" height="42" viewBox="0 0 32 42" fill="none" xmlns="http://www.w3.org/2000/svg">
<path d="M3.59248 3.69941C3.87401 3.69941 4.09925 3.92464 4.09925 4.20618C4.09925 4.48772 3.87401 4.71295 3.59248 4.71295C3.31094 4.71295 3.0857 4.48772 3.0857 4.20618C3.0857 3.92464 3.31657 3.69941 3.59248 3.69941ZM3.59248 3.47418C3.18706 3.47418 2.86047 3.80077 2.86047 4.20618C2.86047 4.6116 3.18706 4.93818 3.59248 4.93818C3.99789 4.93818 4.32448 4.6116 4.32448 4.20618C4.32448 3.80077 3.99789 3.47418 3.59248 3.47418Z" fill="#E0CB96"/>
<path d="M4.60602 3.69941C4.88756 3.69941 5.1128 3.92464 5.1128 4.20618C5.1128 4.48772 4.88756 4.71295 4.60602 4.71295C4.32449 4.71295 4.09925 4.48772 4.09925 4.20618C4.09925 3.92464 4.33012 3.69941 4.60602 3.69941ZM4.60602 3.47418C4.20061 3.47418 3.87402 3.80077 3.87402 4.20618C3.87402 4.6116 4.20061 4.93818 4.60602 4.93818C5.01144 4.93818 5.33803 4.6116 5.33803 4.20618C5.33803 3.80077 5.01144 3.47418 4.60602 3.47418Z" fill="#E0CB96"/>
<path d="M3.59248 4.71296C3.87401 4.71296 4.09925 4.93819 4.09925 5.21973C4.09925 5.50127 3.87401 5.7265 3.59248 5.7265C3.31094 5.7265 3.0857 5.50127 3.0857 5.21973C3.0857 4.93819 3.31657 4.71296 3.59248 4.71296ZM3.59248 4.48773C3.18706 4.48773 2.86047 4.81432 2.86047 5.21973C2.86047 5.62515 3.18706 5.95173 3.59248 5.95173C3.99789 5.95173 4.32448 5.62515 4.32448 5.21973C4.32448 4.81432 3.99789 4.48773 3.59248 4.48773Z" fill="#E0CB96"/>
<path d="M4.60602 4.71296C4.88756 4.71296 5.1128 4.93819 5.1128 5.21973C5.1128 5.50127 4.88756 5.7265 4.60602 5.7265C4.32449 5.7265 4.09925 5.50127 4.09925 5.21973C4.09925 4.93819 4.33012 4.71296 4.60602 4.71296ZM4.60602 4.48773C4.20061 4.48773 3.87402 4.81432 3.87402 5.21973C3.87402 5.62515 4.20061 5.95173 4.60602 5.95173C5.01144 5.95173 5.33803 5.62515 5.33803 5.21973C5.33803 4.81432 5.01144 4.48773 4.60602 4.48773Z" fill="#E0CB96"/>
<path d="M27.0334 3.07441C27.3149 3.07441 27.5402 3.29964 27.5402 3.58118C27.5402 3.86272 27.3149 4.08795 27.0334 4.08795C26.7519 4.08795 26.5266 3.86272 26.5266 3.58118C26.5266 3.29964 26.7519 3.07441 27.0334 3.07441ZM27.0334 2.84918C26.628 2.84918 26.3014 3.17577 26.3014 3.58118C26.3014 3.9866 26.628 4.31319 27.0334 4.31319C27.4388 4.31319 27.7654 3.9866 27.7654 3.58118C27.7654 3.17577 27.4332 2.84918 27.0334 2.84918Z" fill="#E0CB96"/>
<path d="M28.0469 3.07441C28.3285 3.07441 28.5537 3.29964 28.5537 3.58118C28.5537 3.86272 28.3285 4.08795 28.0469 4.08795C27.7654 4.08795 27.5402 3.86272 27.5402 3.58118C27.5402 3.29964 27.7654 3.07441 28.0469 3.07441ZM28.0469 2.84918C27.6415 2.84918 27.3149 3.17577 27.3149 3.58118C27.3149 3.9866 27.6415 4.31319 28.0469 4.31319C28.4524 4.31319 28.7789 3.9866 28.7789 3.58118C28.7789 3.17577 28.4467 2.84918 28.0469 2.84918Z" fill="#E0CB96"/>
<path d="M27.0334 4.08796C27.3149 4.08796 27.5402 4.31319 27.5402 4.59473C27.5402 4.87627 27.3149 5.1015 27.0334 5.1015C26.7519 5.1015 26.5266 4.87627 26.5266 4.59473C26.5266 4.31319 26.7519 4.08796 27.0334 4.08796ZM27.0334 3.86273C26.628 3.86273 26.3014 4.18932 26.3014 4.59473C26.3014 5.00015 26.628 5.32673 27.0334 5.32673C27.4388 5.32673 27.7654 5.00015 27.7654 4.59473C27.7654 4.18932 27.4332 3.86273 27.0334 3.86273Z" fill="#E0CB96"/>
<path d="M28.0469 4.08796C28.3285 4.08796 28.5537 4.31319 28.5537 4.59473C28.5537 4.87627 28.3285 5.1015 28.0469 5.1015C27.7654 5.1015 27.5402 4.87627 27.5402 4.59473C27.5402 4.31319 27.7654 4.08796 28.0469 4.08796ZM28.0469 3.86273C27.6415 3.86273 27.3149 4.18932 27.3149 4.59473C27.3149 5.00015 27.6415 5.32673 28.0469 5.32673C28.4524 5.32673 28.7789 5.00015 28.7789 4.59473C28.7789 4.18932 28.4467 3.86273 28.0469 3.86273Z" fill="#E0CB96"/>
<path d="M17.7933 15.5916C18.0748 15.5916 18.3001 15.8169 18.3001 16.0984C18.3001 16.3799 18.0748 16.6052 17.7933 16.6052C17.5117 16.6052 17.2865 16.3799 17.2865 16.0984C17.2865 15.8169 17.5174 15.5916 17.7933 15.5916ZM17.7933 15.3664C17.3879 15.3664 17.0613 15.693 17.0613 16.0984C17.0613 16.5038 17.3879 16.8304 17.7933 16.8304C18.1987 16.8304 18.5253 16.5038 18.5253 16.0984C18.5253 15.693 18.1987 15.3664 17.7933 15.3664Z" fill="#E0CB96"/>
<path d="M18.8068 15.5916C19.0884 15.5916 19.3136 15.8169 19.3136 16.0984C19.3136 16.3799 19.0884 16.6052 18.8068 16.6052C18.5253 16.6052 18.3001 16.3799 18.3001 16.0984C18.3001 15.8169 18.5309 15.5916 18.8068 15.5916ZM18.8068 15.3664C18.4014 15.3664 18.0748 15.693 18.0748 16.0984C18.0748 16.5038 18.4014 16.8304 18.8068 16.8304C19.2122 16.8304 19.5388 16.5038 19.5388 16.0984C19.5388 15.693 19.2122 15.3664 18.8068 15.3664Z" fill="#E0CB96"/>
<path d="M17.7933 16.6052C18.0748 16.6052 18.3001 16.8304 18.3001 17.1119C18.3001 17.3935 18.0748 17.6187 17.7933 17.6187C17.5117 17.6187 17.2865 17.3935 17.2865 17.1119C17.2865 16.8304 17.5174 16.6052 17.7933 16.6052ZM17.7933 16.3799C17.3879 16.3799 17.0613 16.7065 17.0613 17.1119C17.0613 17.5174 17.3879 17.8439 17.7933 17.8439C18.1987 17.8439 18.5253 17.5174 18.5253 17.1119C18.5253 16.7065 18.1987 16.3799 17.7933 16.3799Z" fill="#E0CB96"/>
<path d="M18.8068 16.6052C19.0884 16.6052 19.3136 16.8304 19.3136 17.1119C19.3136 17.3935 19.0884 17.6187 18.8068 17.6187C18.5253 17.6187 18.3001 17.3935 18.3001 17.1119C18.3001 16.8304 18.5309 16.6052 18.8068 16.6052ZM18.8068 16.3799C18.4014 16.3799 18.0748 16.7065 18.0748 17.1119C18.0748 17.5174 18.4014 17.8439 18.8068 17.8439C19.2122 17.8439 19.5388 17.5174 19.5388 17.1119C19.5388 16.7065 19.2122 16.3799 18.8068 16.3799Z" fill="#E0CB96"/>
<path d="M15.0117 15.479C15.2932 15.479 15.5184 15.7042 15.5184 15.9858C15.5184 16.2673 15.2932 16.4926 15.0117 16.4926C14.7301 16.4926 14.5049 16.2673 14.5049 15.9858C14.5049 15.7042 14.7301 15.479 15.0117 15.479ZM15.0117 15.2538C14.6062 15.2538 14.2797 15.5804 14.2797 15.9858C14.2797 16.3912 14.6062 16.7178 15.0117 16.7178C15.4171 16.7178 15.7437 16.3912 15.7437 15.9858C15.7437 15.5804 15.4115 15.2538 15.0117 15.2538Z" fill="#E0CB96"/>
<path d="M16.0252 15.479C16.3068 15.479 16.532 15.7042 16.532 15.9858C16.532 16.2673 16.3068 16.4926 16.0252 16.4926C15.7437 16.4926 15.5184 16.2673 15.5184 15.9858C15.5184 15.7042 15.7437 15.479 16.0252 15.479ZM16.0252 15.2538C15.6198 15.2538 15.2932 15.5804 15.2932 15.9858C15.2932 16.3912 15.6198 16.7178 16.0252 16.7178C16.4306 16.7178 16.7572 16.3912 16.7572 15.9858C16.7572 15.5804 16.425 15.2538 16.0252 15.2538Z" fill="#E0CB96"/>
<path d="M15.0117 16.4926C15.2932 16.4926 15.5184 16.7178 15.5184 16.9993C15.5184 17.2809 15.2932 17.5061 15.0117 17.5061C14.7301 17.5061 14.5049 17.2809 14.5049 16.9993C14.5049 16.7178 14.7301 16.4926 15.0117 16.4926ZM15.0117 16.2673C14.6062 16.2673 14.2797 16.5939 14.2797 16.9993C14.2797 17.4048 14.6062 17.7313 15.0117 17.7313C15.4171 17.7313 15.7437 17.4048 15.7437 16.9993C15.7437 16.5939 15.4115 16.2673 15.0117 16.2673Z" fill="#E0CB96"/>
<path d="M16.0252 16.4926C16.3068 16.4926 16.532 16.7178 16.532 16.9993C16.532 17.2809 16.3068 17.5061 16.0252 17.5061C15.7437 17.5061 15.5184 17.2809 15.5184 16.9993C15.5184 16.7178 15.7437 16.4926 16.0252 16.4926ZM16.0252 16.2673C15.6198 16.2673 15.2932 16.5939 15.2932 16.9993C15.2932 17.4048 15.6198 17.7313 16.0252 17.7313C16.4306 17.7313 16.7572 17.4048 16.7572 16.9993C16.7572 16.5939 16.425 16.2673 16.0252 16.2673Z" fill="#E0CB96"/>
<path d="M23.655 27.1685C23.9365 27.1685 24.1617 27.3938 24.1617 27.6753C24.1617 27.9568 23.9365 28.1821 23.655 28.1821C23.3734 28.1821 23.1482 27.9568 23.1482 27.6753C23.1482 27.3938 23.3734 27.1685 23.655 27.1685ZM23.655 26.9433C23.2496 26.9433 22.923 27.2699 22.923 27.6753C22.923 28.0807 23.2496 28.4073 23.655 28.4073C24.0604 28.4073 24.387 28.0807 24.387 27.6753C24.387 27.2699 24.0604 26.9433 23.655 26.9433Z" fill="#E0CB96"/>
<path d="M24.6684 27.1685C24.9499 27.1685 25.1752 27.3938 25.1752 27.6753C25.1752 27.9568 24.9499 28.1821 24.6684 28.1821C24.3869 28.1821 24.1616 27.9568 24.1616 27.6753C24.1616 27.3938 24.3869 27.1685 24.6684 27.1685ZM24.6684 26.9433C24.263 26.9433 23.9364 27.2699 23.9364 27.6753C23.9364 28.0807 24.263 28.4073 24.6684 28.4073C25.0738 28.4073 25.4004 28.0807 25.4004 27.6753C25.4004 27.2699 25.0738 26.9433 24.6684 26.9433Z" fill="#E0CB96"/>
<path d="M23.655 28.1821C23.9365 28.1821 24.1617 28.4073 24.1617 28.6888C24.1617 28.9704 23.9365 29.1956 23.655 29.1956C23.3734 29.1956 23.1482 28.9704 23.1482 28.6888C23.1482 28.4129 23.3734 28.1821 23.655 28.1821ZM23.655 27.9568C23.2496 27.9568 22.923 28.2834 22.923 28.6888C22.923 29.0943 23.2496 29.4209 23.655 29.4209C24.0604 29.4209 24.387 29.0943 24.387 28.6888C24.387 28.2891 24.0604 27.9568 23.655 27.9568Z" fill="#E0CB96"/>
<path d="M24.6684 28.1821C24.9499 28.1821 25.1752 28.4073 25.1752 28.6888C25.1752 28.9704 24.9499 29.1956 24.6684 29.1956C24.3869 29.1956 24.1616 28.9704 24.1616 28.6888C24.1616 28.4129 24.3869 28.1821 24.6684 28.1821ZM24.6684 27.9568C24.263 27.9568 23.9364 28.2834 23.9364 28.6888C23.9364 29.0943 24.263 29.4209 24.6684 29.4209C25.0738 29.4209 25.4004 29.0943 25.4004 28.6888C25.4004 28.2891 25.0738 27.9568 24.6684 27.9568Z" fill="#E0CB96"/>
<path d="M18.0129 36.9717C18.2944 36.9717 18.5197 37.1969 18.5197 37.4785C18.5197 37.76 18.2944 37.9852 18.0129 37.9852C17.7313 37.9852 17.5061 37.76 17.5061 37.4785C17.5061 37.1969 17.737 36.9717 18.0129 36.9717ZM18.0129 36.7465C17.6075 36.7465 17.2809 37.073 17.2809 37.4785C17.2809 37.8839 17.6075 38.2105 18.0129 38.2105C18.4183 38.2105 18.7449 37.8839 18.7449 37.4785C18.7449 37.073 18.4183 36.7465 18.0129 36.7465Z" fill="#E0CB96"/>
<path d="M19.0264 36.9717C19.308 36.9717 19.5332 37.1969 19.5332 37.4785C19.5332 37.76 19.308 37.9852 19.0264 37.9852C18.7449 37.9852 18.5197 37.76 18.5197 37.4785C18.5197 37.1969 18.7505 36.9717 19.0264 36.9717ZM19.0264 36.7465C18.621 36.7465 18.2944 37.073 18.2944 37.4785C18.2944 37.8839 18.621 38.2105 19.0264 38.2105C19.4319 38.2105 19.7584 37.8839 19.7584 37.4785C19.7584 37.073 19.4319 36.7465 19.0264 36.7465Z" fill="#E0CB96"/>
<path d="M18.0129 37.9852C18.2944 37.9852 18.5197 38.2105 18.5197 38.492C18.5197 38.7736 18.2944 38.9988 18.0129 38.9988C17.7313 38.9988 17.5061 38.7736 17.5061 38.492C17.5061 38.2105 17.737 37.9852 18.0129 37.9852ZM18.0129 37.76C17.6075 37.76 17.2809 38.0866 17.2809 38.492C17.2809 38.8974 17.6075 39.224 18.0129 39.224C18.4183 39.224 18.7449 38.8974 18.7449 38.492C18.7449 38.0866 18.4183 37.76 18.0129 37.76Z" fill="#E0CB96"/>
<path d="M19.0264 37.9852C19.308 37.9852 19.5332 38.2105 19.5332 38.492C19.5332 38.7736 19.308 38.9988 19.0264 38.9988C18.7449 38.9988 18.5197 38.7736 18.5197 38.492C18.5197 38.2105 18.7505 37.9852 19.0264 37.9852ZM19.0264 37.76C18.621 37.76 18.2944 38.0866 18.2944 38.492C18.2944 38.8974 18.621 39.224 19.0264 39.224C19.4319 39.224 19.7584 38.8974 19.7584 38.492C19.7584 38.0866 19.4319 37.76 19.0264 37.76Z" fill="#E0CB96"/>
<path d="M3.51362 36.9717C3.79516 36.9717 4.02039 37.1969 4.02039 37.4785C4.02039 37.76 3.79516 37.9852 3.51362 37.9852C3.23208 37.9852 3.00685 37.76 3.00685 37.4785C3.00685 37.1969 3.23208 36.9717 3.51362 36.9717ZM3.51362 36.7465C3.1082 36.7465 2.78162 37.073 2.78162 37.4785C2.78162 37.8839 3.1082 38.2105 3.51362 38.2105C3.91903 38.2105 4.24562 37.8839 4.24562 37.4785C4.24562 37.073 3.9134 36.7465 3.51362 36.7465Z" fill="#E0CB96"/>
<path d="M4.52717 36.9717C4.80871 36.9717 5.03394 37.1969 5.03394 37.4785C5.03394 37.76 4.80871 37.9852 4.52717 37.9852C4.24563 37.9852 4.0204 37.76 4.0204 37.4785C4.0204 37.1969 4.24563 36.9717 4.52717 36.9717ZM4.52717 36.7465C4.12175 36.7465 3.79517 37.073 3.79517 37.4785C3.79517 37.8839 4.12175 38.2105 4.52717 38.2105C4.93258 38.2105 5.25917 37.8839 5.25917 37.4785C5.25917 37.073 4.92695 36.7465 4.52717 36.7465Z" fill="#E0CB96"/>
<path d="M3.51362 37.9852C3.79516 37.9852 4.02039 38.2105 4.02039 38.492C4.02039 38.7736 3.79516 38.9988 3.51362 38.9988C3.23208 38.9988 3.00685 38.7736 3.00685 38.492C3.00685 38.2105 3.23208 37.9852 3.51362 37.9852ZM3.51362 37.76C3.1082 37.76 2.78162 38.0866 2.78162 38.492C2.78162 38.8974 3.1082 39.224 3.51362 39.224C3.91903 39.224 4.24562 38.8974 4.24562 38.492C4.24562 38.0866 3.9134 37.76 3.51362 37.76Z" fill="#E0CB96"/>
<path d="M4.52717 37.9852C4.80871 37.9852 5.03394 38.2105 5.03394 38.492C5.03394 38.7736 4.80871 38.9988 4.52717 38.9988C4.24563 38.9988 4.0204 38.7736 4.0204 38.492C4.0204 38.2105 4.24563 37.9852 4.52717 37.9852ZM4.52717 37.76C4.12175 37.76 3.79517 38.0866 3.79517 38.492C3.79517 38.8974 4.12175 39.224 4.52717 39.224C4.93258 39.224 5.25917 38.8974 5.25917 38.492C5.25917 38.0866 4.92695 37.76 4.52717 37.76Z" fill="#E0CB96"/>
<path d="M26.4478 5.22539L26.566 6.35718C26.0367 6.78512 25.4004 7.45518 24.6628 8.373C23.5029 9.80885 22.2923 11.5431 21.3125 13.5083C21.2168 13.6997 20.7832 14.5049 20.3947 15.3158L19.5163 15.4227L19.6683 15.0398C20.4003 13.2605 20.4848 12.0049 20.3046 10.3156C20.0343 7.77614 18.8012 6.45853 15.7943 6.40223H11.4586V22.8328H16.6277C17.1119 22.8328 17.461 22.6696 17.6863 22.3373C17.9059 22.0051 18.0185 21.5884 18.0185 21.0704C18.0185 20.3609 17.4498 18.8913 16.9543 17.7877L17.8383 17.9228L22.5569 27.0616L21.594 26.9996C21.3801 26.6449 21.1267 26.2845 20.8451 25.9185C20.3553 25.2822 19.8147 24.736 19.2291 24.28C18.6435 23.8239 18.0466 23.5986 17.4498 23.5986H11.4699V31.4536C11.4699 32.6698 11.5713 33.6439 11.7796 34.3703C11.9823 35.0967 12.3933 35.6147 13.0127 35.9188C13.6265 36.2285 14.5443 36.3805 15.7606 36.3805H17.4047L17.3991 36.9098H5.1409L5.20284 36.2341C5.37176 36.1778 5.52379 36.1046 5.66456 36.0201C6.04746 35.778 6.329 35.2994 6.50918 34.5899C6.695 33.8804 6.78509 32.8331 6.78509 31.4536V8.74463C6.78509 8.14214 6.64995 7.65226 6.37967 7.26937C6.1094 6.88647 5.77718 6.60493 5.37739 6.41349C5.32109 6.38533 5.25915 6.35718 5.20284 6.33466L5.13527 5.61955H20.9465C23.1031 5.62518 24.9331 5.49004 26.4478 5.22539ZM27.191 4.23438L26.3014 4.39204C24.843 4.65105 23.0412 4.78056 20.9465 4.78056H5.12964H4.20056L4.29065 5.70401L4.35822 6.41912L4.4089 6.92589L4.88189 7.11734C4.92693 7.13423 4.96635 7.15675 5.01139 7.17364C5.27604 7.30315 5.50127 7.4946 5.69272 7.75924C5.85601 7.99011 5.94047 8.32232 5.94047 8.74463V31.4423C5.94047 32.743 5.85601 33.7284 5.69272 34.3647C5.56884 34.8377 5.39429 35.1755 5.20847 35.2938C5.12964 35.3444 5.03392 35.3895 4.93256 35.4233L4.4089 35.5978L4.35822 36.1496L4.29629 36.8253L4.21182 37.7431H5.13527H17.3991H18.2381L18.2437 36.9042L18.2494 36.3749L18.255 35.5246H17.4047H15.7606C14.4148 35.5246 13.7278 35.3219 13.39 35.153C12.9846 34.9503 12.7368 34.6237 12.5961 34.1282C12.4102 33.4806 12.3201 32.5797 12.3201 31.4423V24.4376H17.461C17.8721 24.4376 18.2888 24.6009 18.728 24.9444C19.2573 25.3554 19.7471 25.8509 20.192 26.4309C20.451 26.7688 20.6875 27.1066 20.8902 27.4332L21.1211 27.8048L21.5546 27.833L22.5175 27.8949L24.0096 27.9963L23.3227 26.6674L18.6041 17.5286L18.407 17.1458L17.9847 17.0782L17.1007 16.943L15.5635 16.7009L16.1998 18.1199C16.8867 19.6458 17.1908 20.6931 17.1908 21.0591C17.1908 21.4026 17.1288 21.6673 17.005 21.8531C16.9768 21.8925 16.9261 21.9713 16.6502 21.9713H12.3258V7.23558H15.8056C17.0669 7.26374 17.9566 7.52275 18.5253 8.04078C19.0546 8.5194 19.3643 9.29082 19.4825 10.3944C19.6458 11.8922 19.6007 13.024 18.9025 14.7076V14.7133V14.7189L18.7505 15.1018L18.2268 16.425L19.6402 16.2561L20.5186 16.1491L20.9747 16.0928L21.1774 15.6761C21.4533 15.1018 21.7573 14.5218 21.9375 14.1783C22.0107 14.0432 22.0614 13.9418 22.0895 13.8799C22.9116 12.2301 24.004 10.5577 25.3385 8.90229C26.0367 8.04078 26.6336 7.4045 27.1122 7.01598L27.4669 6.72881L27.4219 6.27272L27.3037 5.14093L27.191 4.23438Z" fill="#E0CB96"/>
<path d="M4.66223 4.14991V5.27606H3.53608V4.14991H4.66223ZM4.77485 4.03729H4.66223H3.53608H3.42346V4.14991V5.27606V5.38868H3.53608H4.66223H4.77485V5.27606V4.14991V4.03729Z" fill="#E0CB96"/>
<path d="M28.1033 3.52485V4.651H26.9771V3.52485H28.1033ZM28.2159 3.41223H28.1033H26.9771H26.8645V3.52485V4.651V4.76362H26.9771H28.1033H28.2159V4.651V3.52485V3.41223Z" fill="#E0CB96"/>
<path d="M18.8632 16.0421V17.1682H17.737V16.0421H18.8632ZM18.9758 15.9294H18.8632H17.737H17.6244V16.0421V17.1682V17.2808H17.737H18.8632H18.9758V17.1682V16.0421V15.9294Z" fill="#E0CB96"/>
<path d="M16.0815 15.9294V17.0556H14.9554V15.9294H16.0815ZM16.1942 15.8168H16.0815H14.9554H14.8428V15.9294V17.0556V17.1682H14.9554H16.0815H16.1942V17.0556V15.9294V15.8168Z" fill="#E0CB96"/>
<path d="M24.7247 27.619V28.7451H23.5986V27.619H24.7247ZM24.8373 27.5063H24.7247H23.5986H23.486V27.619V28.7451V28.8577H23.5986H24.7247H24.8373V28.7451V27.619V27.5063Z" fill="#E0CB96"/>
<path d="M19.0828 37.4221V38.5483H17.9566V37.4221H19.0828ZM19.1954 37.3095H19.0828H17.9566H17.844V37.4221V38.5483V38.6609H17.9566H19.0828H19.1954V38.5483V37.4221V37.3095Z" fill="#E0CB96"/>
<path d="M4.5835 37.4221V38.5483H3.45734V37.4221H4.5835ZM4.69611 37.3095H4.5835H3.45734H3.34473V37.4221V38.5483V38.6609H3.45734H4.5835H4.69611V38.5483V37.4221V37.3095Z" fill="#E0CB96"/>
<path d="M26.6731 3.22643L23.9816 0.534912" stroke="#E0CB96" stroke-width="0.281539" stroke-miterlimit="10"/>
<path d="M30.9468 7.50019L28.4017 4.95508" stroke="#E0CB96" stroke-width="0.281539" stroke-miterlimit="10"/>
<path d="M30.9468 7.24681C31.0876 7.24681 31.2002 7.35943 31.2002 7.5002C31.2002 7.64096 31.0876 7.75358 30.9468 7.75358C30.806 7.75358 30.6934 7.64096 30.6934 7.5002C30.6934 7.35943 30.8117 7.24681 30.9468 7.24681ZM30.9468 6.96527C30.654 6.96527 30.4119 7.20739 30.4119 7.5002C30.4119 7.793 30.654 8.03512 30.9468 8.03512C31.2396 8.03512 31.4817 7.793 31.4817 7.5002C31.4817 7.20739 31.2452 6.96527 30.9468 6.96527Z" fill="#E0CB96"/>
<path d="M23.9816 0.281539C24.1223 0.281539 24.235 0.394155 24.235 0.534924C24.235 0.675694 24.1223 0.788309 23.9816 0.788309C23.8408 0.788309 23.7282 0.675694 23.7282 0.534924C23.7282 0.394155 23.8408 0.281539 23.9816 0.281539ZM23.9816 0C23.6888 0 23.4467 0.242124 23.4467 0.534924C23.4467 0.827725 23.6888 1.06985 23.9816 1.06985C24.2744 1.06985 24.5165 0.827725 24.5165 0.534924C24.5165 0.242124 24.28 0 23.9816 0Z" fill="#E0CB96"/>
<path d="M3.15323 37.1181L0.534912 34.4998" stroke="#E0CB96" stroke-width="0.281539" stroke-miterlimit="10"/>
<path d="M7.50027 41.4651L4.88196 38.8467" stroke="#E0CB96" stroke-width="0.281539" stroke-miterlimit="10"/>
<path d="M7.50026 41.2117C7.64103 41.2117 7.75364 41.3243 7.75364 41.4651C7.75364 41.6059 7.64103 41.7185 7.50026 41.7185C7.35949 41.7185 7.24687 41.6059 7.24687 41.4651C7.24687 41.3243 7.35949 41.2117 7.50026 41.2117ZM7.50026 40.9302C7.20746 40.9302 6.96533 41.1723 6.96533 41.4651C6.96533 41.7579 7.20746 42 7.50026 42C7.79306 42 8.03518 41.7579 8.03518 41.4651C8.03518 41.1723 7.79306 40.9302 7.50026 40.9302Z" fill="#E0CB96"/>
<path d="M0.534924 34.2464C0.675694 34.2464 0.788309 34.3591 0.788309 34.4998C0.788309 34.6406 0.675694 34.7532 0.534924 34.7532C0.394155 34.7532 0.281539 34.6406 0.281539 34.4998C0.281539 34.3591 0.394155 34.2464 0.534924 34.2464ZM0.534924 33.9649C0.242124 33.9649 0 34.207 0 34.4998C0 34.7926 0.242124 35.0348 0.534924 35.0348C0.827725 35.0348 1.06985 34.7926 1.06985 34.4998C1.06985 34.207 0.827725 33.9649 0.534924 33.9649Z" fill="#E0CB96"/>
<path d="M19.3868 37.1181L22.0052 34.4998" stroke="#E0CB96" stroke-width="0.281539" stroke-miterlimit="10"/>
<path d="M15.0398 41.465L17.6581 38.8524" stroke="#E0CB96" stroke-width="0.281539" stroke-miterlimit="10"/>
<path d="M15.0398 41.2117C15.1806 41.2117 15.2932 41.3243 15.2932 41.4651C15.2932 41.6059 15.1806 41.7185 15.0398 41.7185C14.899 41.7185 14.7864 41.6059 14.7864 41.4651C14.7864 41.3243 14.899 41.2117 15.0398 41.2117ZM15.0398 40.9302C14.747 40.9302 14.5049 41.1723 14.5049 41.4651C14.5049 41.7579 14.747 42 15.0398 42C15.3326 42 15.5747 41.7579 15.5747 41.4651C15.5747 41.1723 15.3326 40.9302 15.0398 40.9302Z" fill="#E0CB96"/>
<path d="M22.0051 34.2464C22.1459 34.2464 22.2585 34.3591 22.2585 34.4998C22.2585 34.6406 22.1459 34.7532 22.0051 34.7532C21.8644 34.7532 21.7518 34.6406 21.7518 34.4998C21.7518 34.3591 21.8644 34.2464 22.0051 34.2464ZM22.0051 33.9649C21.7123 33.9649 21.4702 34.207 21.4702 34.4998C21.4702 34.7926 21.7123 35.0348 22.0051 35.0348C22.2979 35.0348 22.5401 34.7926 22.5401 34.4998C22.5401 34.207 22.2979 33.9649 22.0051 33.9649Z" fill="#E0CB96"/>
<path d="M25.0232 27.3206L27.6978 24.6459" stroke="#E0CB96" stroke-width="0.281539" stroke-miterlimit="10"/>
<path d="M20.7325 31.6112L23.2945 29.0492" stroke="#E0CB96" stroke-width="0.281539" stroke-miterlimit="10"/>
<path d="M20.7326 31.3578C20.8733 31.3578 20.9859 31.4704 20.9859 31.6112C20.9859 31.752 20.8733 31.8646 20.7326 31.8646C20.5918 31.8646 20.4792 31.752 20.4792 31.6112C20.4792 31.4704 20.5918 31.3578 20.7326 31.3578ZM20.7326 31.0763C20.4398 31.0763 20.1976 31.3184 20.1976 31.6112C20.1976 31.904 20.4398 32.1461 20.7326 32.1461C21.0254 32.1461 21.2675 31.904 21.2675 31.6112C21.2675 31.3184 21.0254 31.0763 20.7326 31.0763Z" fill="#E0CB96"/>
<path d="M27.6978 24.3926C27.8385 24.3926 27.9512 24.5052 27.9512 24.6459C27.9512 24.7867 27.8385 24.8993 27.6978 24.8993C27.557 24.8993 27.4444 24.7867 27.4444 24.6459C27.4444 24.5052 27.557 24.3926 27.6978 24.3926ZM27.6978 24.111C27.405 24.111 27.1628 24.3531 27.1628 24.6459C27.1628 24.9387 27.405 25.1809 27.6978 25.1809C27.9906 25.1809 28.2327 24.9387 28.2327 24.6459C28.2327 24.3531 27.9906 24.111 27.6978 24.111Z" fill="#E0CB96"/>
<path d="M15.0286 17.5061L13.3788 20.9296" stroke="#E0CB96" stroke-width="0.281539" stroke-miterlimit="10"/>
<path d="M17.6525 12.0555L16.0027 15.479" stroke="#E0CB96" stroke-width="0.281539" stroke-miterlimit="10"/>
<path d="M17.6525 11.8021C17.7595 11.8021 17.8552 11.8697 17.889 11.971C17.9341 12.1005 17.8665 12.2469 17.7314 12.292C17.7032 12.3032 17.675 12.3089 17.6469 12.3089C17.5399 12.3089 17.4442 12.2413 17.4104 12.14C17.3654 12.0104 17.4329 11.864 17.5681 11.819C17.5962 11.8021 17.6244 11.8021 17.6525 11.8021ZM17.6525 11.5206C17.5906 11.5206 17.5343 11.5318 17.478 11.5487C17.3428 11.5938 17.2358 11.6951 17.1739 11.819C17.112 11.9485 17.1063 12.0949 17.1514 12.23C17.2246 12.444 17.4273 12.5904 17.6582 12.5904C17.7201 12.5904 17.7764 12.5792 17.8327 12.5623C17.9678 12.5172 18.0748 12.4159 18.1368 12.292C18.1987 12.1681 18.2043 12.0161 18.1593 11.8809C18.0805 11.6613 17.8778 11.5206 17.6525 11.5206Z" fill="#E0CB96"/>
<path d="M13.3787 20.6762C13.4857 20.6762 13.5814 20.7438 13.6152 20.8451C13.6603 20.9746 13.5927 21.121 13.4576 21.1661C13.4294 21.1773 13.4013 21.183 13.3731 21.183C13.2661 21.183 13.1704 21.1154 13.1366 21.014C13.0916 20.8845 13.1591 20.7381 13.2943 20.6931C13.3224 20.6818 13.3506 20.6762 13.3787 20.6762ZM13.3787 20.3947C13.3168 20.3947 13.2605 20.4059 13.2042 20.4228C12.9283 20.5185 12.7762 20.8282 12.8776 21.1041C12.9508 21.3181 13.1535 21.4645 13.3844 21.4645C13.4463 21.4645 13.5026 21.4532 13.5589 21.4363C13.6941 21.3913 13.801 21.2899 13.863 21.1661C13.9249 21.0366 13.9306 20.8902 13.8855 20.755C13.8123 20.5411 13.604 20.3947 13.3787 20.3947Z" fill="#E0CB96"/>
<path d="M3.23771 5.57446L0.61377 8.19278" stroke="#E0CB96" stroke-width="0.281539" stroke-miterlimit="10"/>
<path d="M7.58474 1.22748L4.96643 3.84579" stroke="#E0CB96" stroke-width="0.281539" stroke-miterlimit="10"/>
<path d="M7.58473 0.974105C7.7255 0.974105 7.83811 1.08672 7.83811 1.22749C7.83811 1.36826 7.7255 1.48088 7.58473 1.48088C7.44396 1.48088 7.33134 1.36826 7.33134 1.22749C7.33134 1.08672 7.44396 0.974105 7.58473 0.974105ZM7.58473 0.692566C7.29193 0.692566 7.0498 0.934689 7.0498 1.22749C7.0498 1.52029 7.29193 1.76241 7.58473 1.76241C7.87753 1.76241 8.11965 1.52029 8.11965 1.22749C8.11965 0.934689 7.87753 0.692566 7.58473 0.692566Z" fill="#E0CB96"/>
<path d="M0.619397 7.93938C0.760166 7.93938 0.872782 8.05199 0.872782 8.19276C0.872782 8.33353 0.760166 8.44615 0.619397 8.44615C0.478627 8.44615 0.366012 8.33353 0.366012 8.19276C0.366012 8.05199 0.478627 7.93938 0.619397 7.93938ZM0.619397 7.65784C0.326596 7.65784 0.0844727 7.89996 0.0844727 8.19276C0.0844727 8.48556 0.320965 8.72769 0.619397 8.72769C0.912197 8.72769 1.15432 8.48556 1.15432 8.19276C1.15432 7.89996 0.912197 7.65784 0.619397 7.65784Z" fill="#E0CB96"/>
<path d="M17.4837 15.6986L14.9949 12.9508" stroke="#E0CB96" stroke-width="0.281539" stroke-miterlimit="10"/>
<path d="M21.611 20.2539L19.1222 17.5061" stroke="#E0CB96" stroke-width="0.281539" stroke-miterlimit="10"/>
<path d="M21.611 20.0005C21.6166 20.0005 21.6222 20.0005 21.6222 20.0005C21.763 20.0062 21.87 20.1244 21.8643 20.2652C21.8587 20.4003 21.7461 20.5073 21.611 20.5073C21.6053 20.5073 21.5997 20.5073 21.5997 20.5073C21.4589 20.5017 21.3519 20.3834 21.3576 20.2427C21.3632 20.1075 21.4758 20.0005 21.611 20.0005ZM21.611 19.719C21.3238 19.719 21.0929 19.9442 21.076 20.2258C21.0704 20.3665 21.1154 20.5073 21.2112 20.6087C21.3069 20.7156 21.4364 20.7776 21.5828 20.7832C21.5941 20.7832 21.5997 20.7832 21.611 20.7832C21.8981 20.7832 22.129 20.558 22.1459 20.2764C22.1515 20.1357 22.1065 19.9949 22.0107 19.8935C21.915 19.7866 21.7855 19.7246 21.6391 19.719C21.6278 19.719 21.6166 19.719 21.611 19.719Z" fill="#E0CB96"/>
<path d="M14.9949 12.6974C15.0005 12.6974 15.0061 12.6974 15.0061 12.6974C15.1469 12.703 15.2539 12.8213 15.2483 12.962C15.2426 13.0972 15.13 13.2042 14.9949 13.2042C14.9892 13.2042 14.9836 13.2042 14.9836 13.2042C14.8428 13.1985 14.7359 13.0803 14.7415 12.9395C14.7471 12.8044 14.8597 12.6974 14.9949 12.6974ZM14.9949 12.4158C14.7077 12.4158 14.4768 12.6411 14.4599 12.9226C14.4543 13.0634 14.4994 13.2042 14.5951 13.3055C14.6908 13.4125 14.8203 13.4744 14.9667 13.4801C14.978 13.4801 14.9836 13.4801 14.9949 13.4801C15.282 13.4801 15.5129 13.2548 15.5298 12.9733C15.5467 12.6805 15.3158 12.4271 15.023 12.4102C15.0118 12.4158 15.0061 12.4158 14.9949 12.4158Z" fill="#E0CB96"/>
</svg>
